<?xml version="1.0" encoding="UTF-8"?>
<svg version="1.1" xmlns="http://www.w3.org/2000/svg" width="400" height="400">
<path d="M0 0 C7.2011439 -0.06322956 14.40125932 -0.12329549 21.60243988 -0.15525055 C24.95721545 -0.17097341 28.31158149 -0.19358879 31.66625977 -0.22631836 C35.531474 -0.26306131 39.3963606 -0.27980858 43.26171875 -0.29296875 C44.44142746 -0.30845261 45.62113617 -0.32393646 46.83659363 -0.33988953 C58.01696585 -0.34211141 68.22026108 1.43897199 78 7 C78 7.66 78 8.32 78 9 C78.5775 9.24878906 79.155 9.49757812 79.75 9.75390625 C87.00350676 13.77103933 90.85358252 20.89028111 93.30859375 28.51953125 C93.65083984 29.74736328 93.65083984 29.74736328 94 31 C94.19078125 31.60328125 94.3815625 32.2065625 94.578125 32.828125 C97.18345365 46.24074286 94.17808524 59.05098127 88 71 C87.34 71 86.68 71 86 71 C85.773125 71.556875 85.54625 72.11375 85.3125 72.6875 C83.63281165 75.6469509 81.45866715 77.66126784 79 80 C78.53335938 80.50015625 78.06671875 81.0003125 77.5859375 81.515625 C75.84641705 83.14374759 74.18949621 84.12196063 72.0625 85.1875 C71.39347656 85.53167969 70.72445312 85.87585938 70.03515625 86.23046875 C68 87 68 87 64 87 C64 87.66 64 88.32 64 89 C64.66 89 65.32 89 66 89 C70 94.41176471 70 94.41176471 70 97 C70.66 97 71.32 97 72 97 C76 102.41176471 76 102.41176471 76 105 C76.66 105 77.32 105 78 105 C80.169283 108.1635377 81.66749209 111.4124787 83 115 C83.66 115 84.32 115 85 115 C86.2890625 116.6796875 86.2890625 116.6796875 87.625 118.875 C88.07101562 119.59429687 88.51703125 120.31359375 88.9765625 121.0546875 C90 123 90 123 90 125 C90.66 125 91.32 125 92 125 C92 125.66 92 126.32 92 127 C92.66 127 93.32 127 94 127 C98 133.75 98 133.75 98 136 C90.08 136 82.16 136 74 136 C73.01 133.525 73.01 133.525 72 131 C71.34 131 70.68 131 70 131 C68.53772055 129.09175565 67.19779642 127.1895778 65.875 125.1875 C65.06363419 123.98621234 64.25111407 122.78570359 63.4375 121.5859375 C63.02886719 120.98104492 62.62023437 120.37615234 62.19921875 119.75292969 C60.47625444 117.2344273 58.67972955 114.77285395 56.875 112.3125 C54.2354713 108.69772375 51.59961331 105.08113472 49 101.4375 C48.4225 100.63183594 47.845 99.82617188 47.25 98.99609375 C46 97 46 97 46 95 C45.34 95 44.68 95 44 95 C44 94.34 44 93.68 44 93 C43.34 93 42.68 93 42 93 C42 92.01 42 91.02 42 90 C35.4 90 28.8 90 22 90 C21.67 105.18 21.34 120.36 21 136 C14.07 136 7.14 136 0 136 C0 113.89 0 91.78 0 69 C25.9375 68.6875 25.9375 68.6875 34.07397461 68.61206055 C36.22511498 68.57974643 38.37623975 68.54636932 40.52734375 68.51171875 C42.17482605 68.50235291 42.17482605 68.50235291 43.85559082 68.49279785 C50.43162597 68.37081406 55.9279327 67.56295227 62 65 C62.64496933 64.73680466 63.28993866 64.47360931 63.95445251 64.20243835 C68.0938882 62.21979657 70.54323189 59.86815528 72.33984375 55.73828125 C74.15414154 48.21270283 74.60922756 38.44474131 71.4375 31.25 C68.17956488 26.16944383 63.97006221 23.59349155 58.265625 21.875 C51.25017325 20.41867859 44.06445615 20.79054234 36.9375 20.875 C29.5434375 20.936875 29.5434375 20.936875 22 21 C21.67 31.56 21.34 42.12 21 53 C14.07 53 7.14 53 0 53 C0 35.51 0 18.02 0 0 Z " fill="#2395D4" transform="translate(232,122)"/>
<path d="M0 0 C2.71537349 0.99829908 3.80474578 1.63928684 5.203125 4.22265625 C5.54859375 5.15980469 5.8940625 6.09695312 6.25 7.0625 C8.27372059 12.25216385 10.48107009 17.28707027 12.875 22.3125 C13.21740723 23.0341333 13.55981445 23.7557666 13.91259766 24.49926758 C14.60452838 25.95699774 15.29707095 27.41443763 15.99023438 28.87158203 C18.69185082 34.56614009 21.34044489 40.28572004 24 46 C24.78890625 47.68416016 24.78890625 47.68416016 25.59375 49.40234375 C28.91569412 56.52926979 32.03452665 63.71753226 35 71 C31.14987409 72.72026903 27.28189426 74.32390968 23.3125 75.75 C22.22388672 76.14445312 22.22388672 76.14445312 21.11328125 76.546875 C18.53228857 77.10028563 17.42973634 77.05948646 15 76 C13.47607422 73.47143555 13.47607422 73.47143555 12.0546875 70.13671875 C11.53519531 68.93982422 11.01570313 67.74292969 10.48046875 66.50976562 C9.94486459 65.23586531 9.40971281 63.96177471 8.875 62.6875 C8.33342691 61.42453082 7.79047315 60.16215274 7.24609375 58.90039062 C6.24528797 56.57557621 5.25097544 54.24794866 4.26513672 51.91674805 C3.24507382 49.56501292 2.17764262 47.27550945 1 45 C-0.27486585 47.66480272 -1.54495466 50.33171716 -2.8125 53 C-3.16892578 53.74378906 -3.52535156 54.48757812 -3.89257812 55.25390625 C-5.9086619 59.50802797 -7.69907884 63.76833843 -9.30932617 68.19091797 C-10.28347586 70.74250834 -11.49411397 73.13892218 -12.75 75.5625 C-16.34919465 82.62524126 -19.67743395 89.80438359 -23 97 C-22.3922876 96.72849121 -21.7845752 96.45698242 -21.15844727 96.17724609 C-8.59685327 90.58563893 3.92538942 85.2666108 17 81 C17.74668945 80.7529834 18.49337891 80.5059668 19.26269531 80.25146484 C45.28414728 71.67362087 71.56795919 66.16524012 98.75 62.75 C100.04510498 62.58685303 101.34020996 62.42370605 102.67456055 62.25561523 C116.378293 60.6055471 130.0028183 59.8456514 143.80859375 59.90234375 C145.1547897 59.90421648 146.50098634 59.90563632 147.84718323 59.90663147 C151.33389275 59.91038952 154.8205584 59.92015951 158.30725098 59.93133545 C161.88777066 59.94169682 165.46829766 59.94616012 169.04882812 59.95117188 C176.03256973 59.96179024 183.01628274 59.97878226 190 60 C190.33 60.66 190.66 61.32 191 62 C189.939021 62.07516846 188.87804199 62.15033691 187.78491211 62.2277832 C158.30269001 64.26632908 158.30269001 64.26632908 129 68 C127.44055664 68.24290771 127.44055664 68.24290771 125.84960938 68.49072266 C91.31747388 73.96791989 56.99580656 82.7078773 25 97 C24.35675781 97.28584961 23.71351562 97.57169922 23.05078125 97.86621094 C7.74212481 104.71843889 -6.76334405 112.82271669 -20.75 122.0625 C-21.37632324 122.47411377 -22.00264648 122.88572754 -22.64794922 123.30981445 C-25.68774573 125.33809665 -28.55716072 127.42304541 -31.328125 129.80859375 C-34 132 -34 132 -36 132 C-36 132.66 -36 133.32 -36 134 C-36.66 134 -37.32 134 -38 134 C-38 134.66 -38 135.32 -38 136 C-41.00436109 138.88217206 -43.10443203 139.36445758 -47.203125 139.29296875 C-48.67265625 139.2784668 -48.67265625 139.2784668 -50.171875 139.26367188 C-51.18765625 139.23853516 -52.2034375 139.21339844 -53.25 139.1875 C-54.28125 139.17396484 -55.3125 139.16042969 -56.375 139.14648438 C-58.91719792 139.11117607 -61.45833223 139.06186036 -64 139 C-62.20297893 133.26088738 -60.13822306 127.83857592 -57.5 122.4375 C-56.79168187 120.96025177 -56.08473307 119.48234645 -55.37890625 118.00390625 C-54.99879395 117.20871582 -54.61868164 116.41352539 -54.22705078 115.59423828 C-51.91666761 110.70961202 -49.68167543 105.79030091 -47.4375 100.875 C-43.33196627 91.89724912 -39.19631594 82.93568454 -35 74 C-34.39449837 72.70704665 -33.78903083 71.41407733 -33.18359375 70.12109375 C-30.23548297 63.83440392 -27.27225347 57.55600702 -24.2578125 51.30078125 C-19.78175214 42.00686612 -15.38259281 32.73283064 -11.40234375 23.21484375 C-8.84636804 17.35532284 -5.90882227 11.69086777 -3 6 C-1.9981664 4.00091785 -0.99758818 2.00120409 0 0 Z " fill="#1B76BC" transform="translate(104,119)"/>
<path d="M0 0 C2.71537349 0.99829908 3.80474578 1.63928684 5.203125 4.22265625 C5.54859375 5.15980469 5.8940625 6.09695312 6.25 7.0625 C8.27372059 12.25216385 10.48107009 17.28707027 12.875 22.3125 C13.21740723 23.0341333 13.55981445 23.7557666 13.91259766 24.49926758 C14.60452838 25.95699774 15.29707095 27.41443763 15.99023438 28.87158203 C18.69185082 34.56614009 21.34044489 40.28572004 24 46 C24.78890625 47.68416016 24.78890625 47.68416016 25.59375 49.40234375 C28.91569412 56.52926979 32.03452665 63.71753226 35 71 C31.14987409 72.72026903 27.28189426 74.32390968 23.3125 75.75 C22.22388672 76.14445312 22.22388672 76.14445312 21.11328125 76.546875 C18.53228857 77.10028563 17.42973634 77.05948646 15 76 C13.47607422 73.47143555 13.47607422 73.47143555 12.0546875 70.13671875 C11.53519531 68.93982422 11.01570313 67.74292969 10.48046875 66.50976562 C9.94486459 65.23586531 9.40971281 63.96177471 8.875 62.6875 C8.33342691 61.42453082 7.79047315 60.16215274 7.24609375 58.90039062 C6.24528797 56.57557621 5.25097544 54.24794866 4.26513672 51.91674805 C3.24507382 49.56501292 2.17764262 47.27550945 1 45 C-0.27486585 47.66480272 -1.54495466 50.33171716 -2.8125 53 C-3.16892578 53.74378906 -3.52535156 54.48757812 -3.89257812 55.25390625 C-6.18700941 60.09536676 -8.1841007 64.95901771 -10 70 C-10.99 70 -11.98 70 -13 70 C-13 67.03 -13 64.06 -13 61 C-13.99 61 -14.98 61 -16 61 C-16.66 59.02 -17.32 57.04 -18 55 C-19.65 54.67 -21.3 54.34 -23 54 C-23.48198463 55.24891614 -23.96045677 56.49918808 -24.4375 57.75 C-24.83775391 58.79414063 -24.83775391 58.79414063 -25.24609375 59.859375 C-25.96146693 61.89059003 -26.51365652 63.9035291 -27 66 C-27.66 66 -28.32 66 -29 66 C-29.25136719 66.99515625 -29.50273438 67.9903125 -29.76171875 69.015625 C-30.95945317 73.20086028 -32.80411988 76.90216893 -34.8125 80.75 C-35.52892818 82.15023212 -36.24376584 83.55127915 -36.95703125 84.953125 C-37.47837646 85.97696289 -37.47837646 85.97696289 -38.01025391 87.02148438 C-40.14280178 91.28447597 -42.07816292 95.63890816 -44 100 C-44.66 99.34 -45.32 98.68 -46 98 C-45.45085938 96.82824219 -45.45085938 96.82824219 -44.890625 95.6328125 C-41.99307109 89.43756628 -39.10636795 83.23780827 -36.25 77.0234375 C-30.83897603 65.25513115 -25.35760394 53.52909137 -19.73242188 41.86157227 C-16.77950187 35.70875487 -14.03542505 29.51134251 -11.40234375 23.21484375 C-8.84636804 17.35532284 -5.90882227 11.69086777 -3 6 C-1.9981664 4.00091785 -0.99758818 2.00120409 0 0 Z " fill="#1B75BC" transform="translate(104,119)"/>
<path d="M0 0 C0 20.46 0 40.92 0 62 C-6.93 62 -13.86 62 -21 62 C-21 43.19 -21 24.38 -21 5 C-7.66666667 0 -7.66666667 0 0 0 Z " fill="#2491CD" transform="translate(205,196)"/>
<path d="M0 0 C6.93 0 13.86 0 21 0 C21 18.15 21 36.3 21 55 C16 57 16 57 0 58 C0 38.86 0 19.72 0 0 Z " fill="#2084C4" transform="translate(184,122)"/>
<path d="M0 0 C1.34619595 0.00187273 2.69239259 0.00329257 4.03858948 0.00428772 C7.525299 0.00804577 11.01196465 0.01781576 14.49865723 0.0289917 C18.07917691 0.03935307 21.65970391 0.04381637 25.24023438 0.04882812 C32.22397598 0.05944649 39.20768899 0.07643851 46.19140625 0.09765625 C46.52140625 0.75765625 46.85140625 1.41765625 47.19140625 2.09765625 C45.59993774 2.21040894 45.59993774 2.21040894 43.97631836 2.32543945 C14.49409626 4.36398533 14.49409626 4.36398533 -14.80859375 8.09765625 C-15.84822266 8.25959473 -16.88785156 8.4215332 -17.95898438 8.58837891 C-32.04599435 10.82274209 -45.91703204 13.6941321 -59.74609375 17.16015625 C-60.4084201 17.32583099 -61.07074646 17.49150574 -61.75314331 17.66220093 C-68.48836974 19.35784629 -75.14723071 21.17708432 -81.76171875 23.296875 C-86.50041281 24.78327501 -90.66631251 25.64746307 -95.62109375 25.84765625 C-96.80316406 25.904375 -97.98523438 25.96109375 -99.203125 26.01953125 C-100.49283203 26.05820313 -100.49283203 26.05820313 -101.80859375 26.09765625 C-102.13859375 23.78765625 -102.46859375 21.47765625 -102.80859375 19.09765625 C-101.81859375 19.09765625 -100.82859375 19.09765625 -99.80859375 19.09765625 C-99.80859375 18.10765625 -99.80859375 17.11765625 -99.80859375 16.09765625 C-99.14859375 16.09765625 -98.48859375 16.09765625 -97.80859375 16.09765625 C-97.80859375 15.43765625 -97.80859375 14.77765625 -97.80859375 14.09765625 C-96.80957031 13.90429688 -95.81054688 13.7109375 -94.78125 13.51171875 C-93.49089844 13.25132812 -92.20054687 12.9909375 -90.87109375 12.72265625 C-89.58332031 12.46742188 -88.29554688 12.2121875 -86.96875 11.94921875 C-85.92589844 11.66820312 -84.88304687 11.3871875 -83.80859375 11.09765625 C-83.47859375 10.43765625 -83.14859375 9.77765625 -82.80859375 9.09765625 C-79.94599327 8.35143619 -77.15175691 7.75201172 -74.24609375 7.22265625 C-73.33585449 7.05338623 -72.42561523 6.88411621 -71.48779297 6.7097168 C-62.8404585 5.16763013 -54.14623997 4.00676005 -45.43359375 2.91015625 C-44.76939423 2.82566223 -44.1051947 2.74116821 -43.42086792 2.65411377 C-28.95263922 0.83015296 -14.58776698 -0.05990353 0 0 Z " fill="#1F85C7" transform="translate(247.80859375,178.90234375)"/>
<path d="M0 0 C3.41664873 -0.02908357 6.8332655 -0.04682691 10.25 -0.0625 C11.70212891 -0.07506836 11.70212891 -0.07506836 13.18359375 -0.08789062 C14.11816406 -0.09111328 15.05273438 -0.09433594 16.015625 -0.09765625 C16.87446289 -0.10289307 17.73330078 -0.10812988 18.61816406 -0.11352539 C20.8917731 -0.00515842 22.80344835 0.44913252 25 1 C27.68149993 0.61432869 27.68149993 0.61432869 30 0 C30.66 0.99 31.32 1.98 32 3 C30.68 3 29.36 3 28 3 C29.39195915 5.7839183 31.15575779 5.97898997 34 7 C34 7.66 34 8.32 34 9 C34.66 9.33 35.32 9.66 36 10 C36.495 10.99 36.495 10.99 37 12 C37.99 11.67 38.98 11.34 40 11 C42.13503265 14.82526683 43.50555836 17.57636432 43 22 C42.505 22.495 42.505 22.495 42 23 C42.66 23 43.32 23 44 23 C44.66 21.68 45.32 20.36 46 19 C45.34 19 44.68 19 44 19 C44.50740462 14.60249328 47.08293314 12.13051078 50 9 C50.66 9 51.32 9 52 9 C52.928125 10.423125 52.928125 10.423125 53.875 11.875 C55.87924473 14.82241872 56.74790731 15.83853833 60 17 C60 17.66 60 18.32 60 19 C60.66 19 61.32 19 62 19 C64.169283 22.1635377 65.66749209 25.4124787 67 29 C67.66 29 68.32 29 69 29 C70.2890625 30.6796875 70.2890625 30.6796875 71.625 32.875 C72.07101562 33.59429687 72.51703125 34.31359375 72.9765625 35.0546875 C74 37 74 37 74 39 C74.66 39 75.32 39 76 39 C76 39.66 76 40.32 76 41 C76.66 41 77.32 41 78 41 C82 47.75 82 47.75 82 50 C74.08 50 66.16 50 58 50 C57.34 48.35 56.68 46.7 56 45 C55.34 45 54.68 45 54 45 C52.53772055 43.09175565 51.19779642 41.1895778 49.875 39.1875 C49.06363419 37.98621234 48.25111407 36.78570359 47.4375 35.5859375 C47.02886719 34.98104492 46.62023437 34.37615234 46.19921875 33.75292969 C44.47625444 31.2344273 42.67972955 28.77285395 40.875 26.3125 C38.2354713 22.69772375 35.59961331 19.08113472 33 15.4375 C32.4225 14.63183594 31.845 13.82617188 31.25 12.99609375 C30 11 30 11 30 9 C29.34 9 28.68 9 28 9 C28 8.34 28 7.68 28 7 C27.34 7 26.68 7 26 7 C26 6.01 26 5.02 26 4 C19.07 4 12.14 4 5 4 C4.67 18.85 4.34 33.7 4 49 C2.35 48.67 0.7 48.34 -1 48 C-0.01 47.505 -0.01 47.505 1 47 C1.02485249 42.28605527 1.04293186 37.5721493 1.05493164 32.8581543 C1.05993805 31.25691055 1.06674515 29.65567133 1.07543945 28.05444336 C1.08766764 25.74331542 1.09326536 23.43224831 1.09765625 21.12109375 C1.10281754 20.41351425 1.10797882 19.70593475 1.11329651 18.97691345 C1.11367223 15.59345874 0.91478262 12.40874725 0.43139648 9.05493164 C0.28903564 8.0468042 0.1466748 7.03867676 0 6 C0.33 5.67 0.66 5.34 1 5 C0.71395102 3.32457024 0.38218767 1.65614657 0 0 Z " fill="#259EDB" transform="translate(248,208)"/>
<path d="M0 0 C1.48778927 3.22526177 2.96368107 6.4558333 4.4375 9.6875 C5.06881836 11.05551758 5.06881836 11.05551758 5.71289062 12.45117188 C6.11572266 13.33740234 6.51855469 14.22363281 6.93359375 15.13671875 C7.4913147 16.35427856 7.4913147 16.35427856 8.06030273 17.59643555 C9 20 9 20 9.50415039 22.74145508 C9.66778076 23.4867749 9.83141113 24.23209473 10 25 C10.66 25.33 11.32 25.66 12 26 C12.96142578 27.62646484 12.96142578 27.62646484 13.9453125 29.7109375 C14.29980469 30.46117187 14.65429688 31.21140625 15.01953125 31.984375 C15.38433594 32.77328125 15.74914062 33.5621875 16.125 34.375 C16.49753906 35.15617187 16.87007812 35.93734375 17.25390625 36.7421875 C20 42.61661516 20 42.61661516 20 46 C12.74 46 5.48 46 -2 46 C-6.09735706 38.12876144 -9.76627977 30.13241941 -13.3125 22 C-13.75706543 20.98478271 -14.20163086 19.96956543 -14.65966797 18.92358398 C-15.07748535 17.95880127 -15.49530273 16.99401855 -15.92578125 16 C-16.48906128 14.700625 -16.48906128 14.700625 -17.0637207 13.375 C-17.89911602 11.25590597 -18.51247826 9.22132517 -19 7 C-16.39869373 5.8265684 -13.79431492 4.66107492 -11.1875 3.5 C-10.44951172 3.16613281 -9.71152344 2.83226562 -8.95117188 2.48828125 C-8.23896484 2.17246094 -7.52675781 1.85664063 -6.79296875 1.53125 C-6.1383667 1.23798828 -5.48376465 0.94472656 -4.80932617 0.64257812 C-3 0 -3 0 0 0 Z " fill="#1D85C8" transform="translate(150,212)"/>
<path d="M0 0 C7.2011439 -0.06322956 14.40125932 -0.12329549 21.60243988 -0.15525055 C24.95721545 -0.17097341 28.31158149 -0.19358879 31.66625977 -0.22631836 C35.531474 -0.26306131 39.3963606 -0.27980858 43.26171875 -0.29296875 C44.44142746 -0.30845261 45.62113617 -0.32393646 46.83659363 -0.33988953 C58.01696585 -0.34211141 68.22026108 1.43897199 78 7 C78 7.66 78 8.32 78 9 C78.53625 9.20625 79.0725 9.4125 79.625 9.625 C82.91978009 11.53250426 85.59363628 14.04819384 88 17 C88 17.66 88 18.32 88 19 C87.34 19 86.68 19 86 19 C86 18.34 86 17.68 86 17 C85.34 17 84.68 17 84 17 C84 16.34 84 15.68 84 15 C82.68 15.33 81.36 15.66 80 16 C80 15.34 80 14.68 80 14 C78.576875 14.061875 78.576875 14.061875 77.125 14.125 C74 14 74 14 72 12 C72 10.68 72 9.36 72 8 C68.5980513 5.90649311 65.94727588 5.82057837 62 6 C61.505 5.01 61.505 5.01 61 4 C60.01 4.33 59.02 4.66 58 5 C57.34 4.67 56.68 4.34 56 4 C56 3.34 56 2.68 56 2 C54.86159668 2.00523682 53.72319336 2.01047363 52.55029297 2.01586914 C48.25993663 2.0341952 43.96958362 2.04553115 39.67919922 2.05493164 C37.83479223 2.05990958 35.99038907 2.06669434 34.14599609 2.07543945 C23.37649618 2.12516284 12.73269254 1.99810215 2 1 C2.01474869 1.59690643 2.02949738 2.19381287 2.04469299 2.80880737 C2.19677451 9.00505113 2.34160823 15.20143383 2.48217773 21.39794922 C2.53564421 23.71244635 2.59097706 26.02690113 2.64819336 28.34130859 C2.7299747 31.66234198 2.80510733 34.98346836 2.87890625 38.3046875 C2.90594131 39.34430634 2.93297638 40.38392517 2.96083069 41.45504761 C2.98092697 42.41589264 3.00102325 43.37673767 3.02172852 44.36669922 C3.05170677 45.63910965 3.05170677 45.63910965 3.08229065 46.93722534 C3 49 3 49 2 51 C7.94 51 13.88 51 20 51 C19.67 50.01 19.34 49.02 19 48 C18.91641042 45.78910055 18.89268236 43.57573922 18.90234375 41.36328125 C18.90556641 40.06455078 18.90878906 38.76582031 18.91210938 37.42773438 C18.92046469 36.05598892 18.92892963 34.68424413 18.9375 33.3125 C18.94251665 31.92903805 18.94707927 30.54557437 18.95117188 29.16210938 C18.96297471 25.77469605 18.97943981 22.38736967 19 19 C18.34 18.67 17.68 18.34 17 18 C17.66 17.01 18.32 16.02 19 15 C19.99 15.33 20.98 15.66 22 16 C22 16.33 22 16.66 22 17 C33.55 17 45.1 17 57 17 C57.495 18.485 57.495 18.485 58 20 C53.85758584 21.00013174 49.98519696 21.11516542 45.73046875 21.09765625 C44.48418701 21.09515869 43.23790527 21.09266113 41.95385742 21.09008789 C40.38095947 21.08098389 38.80806152 21.07187988 37.1875 21.0625 C29.6696875 21.0315625 29.6696875 21.0315625 22 21 C21.67 31.56 21.34 42.12 21 53 C14.07 53 7.14 53 0 53 C0 35.51 0 18.02 0 0 Z " fill="#2374A5" transform="translate(232,122)"/>
<path d="M0 0 C1.98 0 3.96 0 6 0 C6 0.66 6 1.32 6 2 C6.66 2 7.32 2 8 2 C9.2890625 3.6796875 9.2890625 3.6796875 10.625 5.875 C11.07101562 6.59429687 11.51703125 7.31359375 11.9765625 8.0546875 C13 10 13 10 13 12 C13.66 12 14.32 12 15 12 C15 12.66 15 13.32 15 14 C15.66 14 16.32 14 17 14 C21 20.75 21 20.75 21 23 C13.08 23 5.16 23 -3 23 C-3.66 21.35 -4.32 19.7 -5 18 C-5.66 18 -6.32 18 -7 18 C-11 12.58823529 -11 12.58823529 -11 10 C-10.21625 9.54625 -9.4325 9.0925 -8.625 8.625 C-5.89343188 7.25180254 -5.89343188 7.25180254 -4.9375 4.875 C-4 3 -4 3 -1.875 2.25 C-1.25625 2.1675 -0.6375 2.085 0 2 C0 1.34 0 0.68 0 0 Z " fill="#2099D6" transform="translate(309,235)"/>
<path d="M0 0 C20.13 0 40.26 0 61 0 C61.495 0.99 61.495 0.99 62 2 C60.40853149 2.11275269 60.40853149 2.11275269 58.78491211 2.2277832 C27.79647458 4.44029774 -2.50463909 7.83404286 -33 14 C-32.67 12.35 -32.34 10.7 -32 9 C-31.34 9 -30.68 9 -30 9 C-29.690625 8.360625 -29.38125 7.72125 -29.0625 7.0625 C-28 5 -28 5 -27 4 C-18.53435443 2.21433309 -10.19880875 1.71977493 -1.57421875 1.8046875 C0.09618721 1.80893234 0.09618721 1.80893234 1.80033875 1.81326294 C5.30450894 1.82432298 8.80840905 1.84939978 12.3125 1.875 C14.71028273 1.88504816 17.10806952 1.89417077 19.50585938 1.90234375 C25.33742352 1.92250125 31.16841488 1.96167633 37 2 C18.685 1.505 18.685 1.505 0 1 C0 0.67 0 0.34 0 0 Z " fill="#2692CC" transform="translate(233,179)"/>
<path d="M0 0 C3.68131171 0.02077571 7.36265242 0.02966022 11.04400635 0.03967285 C18.2159585 0.06086782 25.38777038 0.09482019 32.55963135 0.1373291 C32.55963135 0.4673291 32.55963135 0.7973291 32.55963135 1.1373291 C24.82430186 1.98335096 17.21218346 2.26133297 9.43463135 2.1998291 C8.3253125 2.19604248 7.21599365 2.19225586 6.07305908 2.18835449 C2.56854148 2.17624694 -0.93588938 2.15760016 -4.44036865 2.1373291 C-9.08619954 2.11077788 -13.73199076 2.09079782 -18.37786865 2.0748291 C-19.44343994 2.06653076 -20.50901123 2.05823242 -21.60687256 2.04968262 C-22.59219971 2.04637939 -23.57752686 2.04307617 -24.5927124 2.03967285 C-25.45888184 2.03443604 -26.32505127 2.02919922 -27.21746826 2.02380371 C-29.61479947 2.04690094 -29.61479947 2.04690094 -32.44036865 3.1373291 C-34.16832217 3.20535877 -35.8987223 3.22228555 -37.62786865 3.1998291 C-38.52892334 3.19080566 -39.42997803 3.18178223 -40.3583374 3.17248535 C-41.04540771 3.16088379 -41.73247803 3.14928223 -42.44036865 3.1373291 C-42.77036865 3.7973291 -43.10036865 4.4573291 -43.44036865 5.1373291 C-44.43036865 6.6223291 -44.43036865 6.6223291 -45.44036865 8.1373291 C-46.10036865 8.1373291 -46.76036865 8.1373291 -47.44036865 8.1373291 C-47.77036865 9.7873291 -48.10036865 11.4373291 -48.44036865 13.1373291 C-56.86894008 15.56590053 -56.86894008 15.56590053 -61.44036865 14.1373291 C-61.44036865 13.8073291 -61.44036865 13.4773291 -61.44036865 13.1373291 C-58.47036865 12.1473291 -55.50036865 11.1573291 -52.44036865 10.1373291 C-52.44036865 8.8173291 -52.44036865 7.4973291 -52.44036865 6.1373291 C-55.41036865 5.8073291 -58.38036865 5.4773291 -61.44036865 5.1373291 C-61.77036865 5.7973291 -62.10036865 6.4573291 -62.44036865 7.1373291 C-65.33607334 8.35995997 -67.53338797 9.23810473 -70.69036865 8.8873291 C-72.44036865 8.1373291 -72.44036865 8.1373291 -74.44036865 6.1373291 C-70.48309172 5.50552588 -66.52436462 4.88326173 -62.56536865 4.2623291 C-61.47611084 4.08830566 -60.38685303 3.91428223 -59.2645874 3.73498535 C-55.66036575 3.17247677 -52.05190135 2.65074009 -48.44036865 2.1373291 C-47.20206299 1.94767578 -45.96375732 1.75802246 -44.68792725 1.56262207 C-29.87857489 -0.51878793 -14.91766397 -0.0933221 0 0 Z " fill="#2485BB" transform="translate(248.44036865234375,179.8626708984375)"/>
<path d="M0 0 C0.67119549 1.4562545 1.33681807 2.91507867 2 4.375 C2.556875 5.59316406 2.556875 5.59316406 3.125 6.8359375 C4 9 4 9 4 11 C1.525 10.505 1.525 10.505 -1 10 C-1.33 9.01 -1.66 8.02 -2 7 C-1.67 6.67 -1.34 6.34 -1 6 C-1.33 5.01 -1.66 4.02 -2 3 C-2.66 3 -3.32 3 -4 3 C-4.0825 3.53625 -4.165 4.0725 -4.25 4.625 C-5 7 -5 7 -7 9.8125 C-9.21954537 13.34990043 -9.60471928 15.88908046 -10 20 C-10.33 20.66 -10.66 21.32 -11 22 C-10.34 22 -9.68 22 -9 22 C-8.67 20.68 -8.34 19.36 -8 18 C-7.67 19.65 -7.34 21.3 -7 23 C-7.66 23.33 -8.32 23.66 -9 24 C-8.67 26.31 -8.34 28.62 -8 31 C-11.08160715 27.37013145 -12.77242351 23.333145 -14.625 19 C-15.09292969 17.93265625 -15.09292969 17.93265625 -15.5703125 16.84375 C-16.98388973 13.57789916 -18.20273065 10.47759466 -19 7 C-16.39869373 5.8265684 -13.79431492 4.66107492 -11.1875 3.5 C-10.44951172 3.16613281 -9.71152344 2.83226562 -8.95117188 2.48828125 C-8.23896484 2.17246094 -7.52675781 1.85664063 -6.79296875 1.53125 C-6.1383667 1.23798828 -5.48376465 0.94472656 -4.80932617 0.64257812 C-3 0 -3 0 0 0 Z " fill="#1F7DC2" transform="translate(150,212)"/>
<path d="M0 0 C0 1.32 0 2.64 0 4 C0.66 4.33 1.32 4.66 2 5 C0.41701974 5.4803318 -1.16639978 5.95921612 -2.75 6.4375 C-3.63171875 6.70433594 -4.5134375 6.97117188 -5.421875 7.24609375 C-6.27265625 7.49488281 -7.1234375 7.74367187 -8 8 C-8.69351563 8.20367187 -9.38703125 8.40734375 -10.1015625 8.6171875 C-13.2003403 9.24204393 -15.93716119 8.62391161 -19 8 C-19.66 7.34 -20.32 6.68 -21 6 C-21.33 7.32 -21.66 8.64 -22 10 C-23.32 10 -24.64 10 -26 10 C-25.67 8.68 -25.34 7.36 -25 6 C-25.99 6 -26.98 6 -28 6 C-26.8787787 3.75755739 -25.97380807 2.5508492 -24 1 C-20.87585686 0.68758569 -19.00174224 0.99941925 -16 2 C-14.96875 1.505 -13.9375 1.01 -12.875 0.5 C-8.48636848 -1.57684704 -4.64952629 -0.87508091 0 0 Z " fill="#218FD0" transform="translate(196,186)"/>
<path d="M0 0 C0.99 0.33 1.98 0.66 3 1 C3 1.33 3 1.66 3 2 C14.55 2 26.1 2 38 2 C38.495 3.485 38.495 3.485 39 5 C34.85758584 6.00013174 30.98519696 6.11516542 26.73046875 6.09765625 C25.48418701 6.09515869 24.23790527 6.09266113 22.95385742 6.09008789 C21.38095947 6.08098389 19.80806152 6.07187988 18.1875 6.0625 C10.6696875 6.0315625 10.6696875 6.0315625 3 6 C2.67 16.56 2.34 27.12 2 38 C-4.27 38 -10.54 38 -17 38 C-17 37.67 -17 37.34 -17 37 C-11.06 37 -5.12 37 1 37 C0.67 35.68 0.34 34.36 0 33 C-0.08173345 30.75646063 -0.10750277 28.51063108 -0.09765625 26.265625 C-0.09443359 24.97011719 -0.09121094 23.67460937 -0.08789062 22.33984375 C-0.07953598 20.97656183 -0.07107104 19.61328058 -0.0625 18.25 C-0.05748168 16.87109535 -0.05291935 15.49218896 -0.04882812 14.11328125 C-0.03704093 10.74214341 -0.02058635 7.37109372 0 4 C-0.66 3.67 -1.32 3.34 -2 3 C-1.34 2.01 -0.68 1.02 0 0 Z " fill="#2781B6" transform="translate(251,137)"/>
<path d="M0 0 C0 0.66 0 1.32 0 2 C0.53625 2.20625 1.0725 2.4125 1.625 2.625 C4.91978009 4.53250426 7.59363628 7.04819384 10 10 C10 10.66 10 11.32 10 12 C9.34 12 8.68 12 8 12 C8 11.34 8 10.68 8 10 C7.34 10 6.68 10 6 10 C6 9.34 6 8.68 6 8 C4.68 8.33 3.36 8.66 2 9 C2 8.34 2 7.68 2 7 C1.05125 7.04125 0.1025 7.0825 -0.875 7.125 C-4 7 -4 7 -6 5 C-6 3.68 -6 2.36 -6 1 C-9.4019487 -1.09350689 -12.05272412 -1.17942163 -16 -1 C-16.495 -1.99 -16.495 -1.99 -17 -3 C-17.99 -2.67 -18.98 -2.34 -20 -2 C-20.66 -2.33 -21.32 -2.66 -22 -3 C-22 -3.66 -22 -4.32 -22 -5 C-35.2 -5 -48.4 -5 -62 -5 C-62 -5.33 -62 -5.66 -62 -6 C-56.56033161 -6.21981958 -51.12046294 -6.41607026 -45.67919922 -6.59204102 C-43.83457606 -6.65483465 -41.99014714 -6.72367622 -40.14599609 -6.79907227 C-25.89960429 -7.37558296 -12.71698995 -7.37585417 0 0 Z " fill="#227FBB" transform="translate(310,129)"/>
<path d="M0 0 C0 0.33 0 0.66 0 1 C-1.65 1.33 -3.3 1.66 -5 2 C-5.33 3.32 -5.66 4.64 -6 6 C-7.134375 6.12375 -8.26875 6.2475 -9.4375 6.375 C-11.2009375 6.684375 -11.2009375 6.684375 -13 7 C-13.33 7.66 -13.66 8.32 -14 9 C-16.5315866 9.63801836 -18.99839502 10.16687368 -21.5625 10.625 C-22.27341797 10.7590625 -22.98433594 10.893125 -23.71679688 11.03125 C-25.47642553 11.36191847 -27.23804548 11.68195767 -29 12 C-28.67 10.35 -28.34 8.7 -28 7 C-27.34 7 -26.68 7 -26 7 C-25.5359375 6.0409375 -25.5359375 6.0409375 -25.0625 5.0625 C-24 3 -24 3 -23 2 C-15.34218558 0.41761603 -7.80845601 -0.31727361 0 0 Z " fill="#1F94D1" transform="translate(229,181)"/>
<path d="M0 0 C1.98 0.495 1.98 0.495 4 1 C4 16.84 4 32.68 4 49 C2.35 48.67 0.7 48.34 -1 48 C-0.01 47.505 -0.01 47.505 1 47 C1.02485249 42.28605527 1.04293186 37.5721493 1.05493164 32.8581543 C1.05993805 31.25691055 1.06674515 29.65567133 1.07543945 28.05444336 C1.08766764 25.74331542 1.09326536 23.43224831 1.09765625 21.12109375 C1.10281754 20.41351425 1.10797882 19.70593475 1.11329651 18.97691345 C1.11367223 15.59345874 0.91478262 12.40874725 0.43139648 9.05493164 C0.28903564 8.0468042 0.1466748 7.03867676 0 6 C0.33 5.67 0.66 5.34 1 5 C0.71395102 3.32457024 0.38218767 1.65614657 0 0 Z " fill="#1BA4DA" transform="translate(248,208)"/>
<path d="M0 0 C1.04711803 3.23606827 1.06991588 3.83302444 -0.328125 7.171875 C-0.95817411 8.3702037 -1.59936353 9.56272339 -2.25 10.75 C-5.54330428 17.02598085 -8.33841667 23.08177122 -10 30 C-10.66 30 -11.32 30 -12 30 C-12.25136719 30.99515625 -12.50273438 31.9903125 -12.76171875 33.015625 C-13.95945317 37.20086028 -15.80411988 40.90216893 -17.8125 44.75 C-18.52892818 46.15023212 -19.24376584 47.55127915 -19.95703125 48.953125 C-20.30459473 49.63568359 -20.6521582 50.31824219 -21.01025391 51.02148438 C-23.14280178 55.28447597 -25.07816292 59.63890816 -27 64 C-27.66 63.34 -28.32 62.68 -29 62 C-28.45085938 60.82824219 -28.45085938 60.82824219 -27.890625 59.6328125 C-24.98198377 53.41386054 -22.08467386 47.19010542 -19.21484375 40.953125 C-12.91064695 27.25282804 -6.52811325 13.59512444 0 0 Z " fill="#25679D" transform="translate(87,155)"/>
<path d="M0 0 C3.0833134 -0.02911321 6.16659125 -0.04683682 9.25 -0.0625 C10.12269531 -0.07087891 10.99539063 -0.07925781 11.89453125 -0.08789062 C12.73886719 -0.09111328 13.58320313 -0.09433594 14.453125 -0.09765625 C15.22817383 -0.10289307 16.00322266 -0.10812988 16.80175781 -0.11352539 C19 0 19 0 21.11230469 0.53344727 C23.62226779 1.1537964 25.52273849 0.61931538 28 0 C28.66 0.99 29.32 1.98 30 3 C28.68 3 27.36 3 26 3 C27.39195915 5.7839183 29.15575779 5.97898997 32 7 C32.144375 8.0725 32.28875 9.145 32.4375 10.25 C32.83749442 12.91662949 33.27591924 15.41399729 34 18 C30.91910327 15.22719294 29.31224548 12.93673644 28 9 C27.34 9 26.68 9 26 9 C26 8.34 26 7.68 26 7 C25.34 7 24.68 7 24 7 C24 6.01 24 5.02 24 4 C16.74 4 9.48 4 2 4 C2 3.01 2 2.02 2 1 C1.34 0.67 0.68 0.34 0 0 Z " fill="#35ACDE" transform="translate(250,208)"/>
<path d="M0 0 C2.90045459 1.4502273 3.01216796 3.29728825 4.0625 6.3125 C4.40410156 7.27800781 4.74570312 8.24351562 5.09765625 9.23828125 C9.11790426 21.54267667 7.63358 34.10576562 3 46 C2.34 45.67 1.68 45.34 1 45 C1.30769707 43.18667846 1.62129064 41.37435655 1.9375 39.5625 C2.19853516 38.04849609 2.19853516 38.04849609 2.46484375 36.50390625 C3 34 3 34 4 33 C4.08631874 31.65732587 4.10706473 30.31025678 4.09765625 28.96484375 C4.09443359 28.15595703 4.09121094 27.34707031 4.08789062 26.51367188 C4.07951172 25.66353516 4.07113281 24.81339844 4.0625 23.9375 C4.05573242 22.65649414 4.05573242 22.65649414 4.04882812 21.34960938 C4.03700373 19.23304337 4.01906769 17.11651315 4 15 C3.01 15.33 2.02 15.66 1 16 C1.20625 15.2575 1.4125 14.515 1.625 13.75 C2.25407647 11.06755791 2.25407647 11.06755791 1.0625 9.125 C-0.4594903 6.0810194 -0.12877016 3.34802414 0 0 Z " fill="#2683BD" transform="translate(320,141)"/>
<path d="M0 0 C20.13 0 40.26 0 61 0 C61.495 0.99 61.495 0.99 62 2 C48.9588771 3.36834441 36.11534154 4.31309834 23 4 C23 3.67 23 3.34 23 3 C27.62 2.67 32.24 2.34 37 2 C18.685 1.505 18.685 1.505 0 1 C0 0.67 0 0.34 0 0 Z " fill="#5398BD" transform="translate(233,179)"/>
<path d="M0 0 C0.66 0 1.32 0 2 0 C3.2890625 1.6796875 3.2890625 1.6796875 4.625 3.875 C5.07101562 4.59429687 5.51703125 5.31359375 5.9765625 6.0546875 C7 8 7 8 7 10 C7.66 10 8.32 10 9 10 C9 10.66 9 11.32 9 12 C9.66 12 10.32 12 11 12 C15 18.75 15 18.75 15 21 C7.08 21 -0.84 21 -9 21 C-9.66 19.35 -10.32 17.7 -11 16 C-11.66 16 -12.32 16 -13 16 C-13.33 15.01 -13.66 14.02 -14 13 C-11.5625 13.8125 -11.5625 13.8125 -9 15 C-8.67 15.99 -8.34 16.98 -8 18 C-4.70039859 19.6498007 -1.00872116 19.38258361 2.625 19.5625 C3.42679687 19.60568359 4.22859375 19.64886719 5.0546875 19.69335938 C7.0362511 19.79951457 9.01810271 19.90026855 11 20 C10.53722656 19.24203125 10.07445312 18.4840625 9.59765625 17.703125 C8 15 8 15 6.4375 11.75 C5.28993042 8.90101081 5.28993042 8.90101081 3 8 C2.67 8.66 2.34 9.32 2 10 C0.41727399 8.41727399 0.65264253 6.61965997 0.4375 4.4375 C0.35371094 3.61121094 0.26992188 2.78492188 0.18359375 1.93359375 C0.12300781 1.29550781 0.06242187 0.65742188 0 0 Z " fill="#318AB8" transform="translate(315,237)"/>
<path d="M0 0 C2.71537349 0.99829908 3.80474578 1.63928684 5.203125 4.22265625 C5.54859375 5.15980469 5.8940625 6.09695312 6.25 7.0625 C8.37555988 12.52917432 10.73181693 17.82749312 13.25 23.125 C13.60352539 23.87144775 13.95705078 24.61789551 14.32128906 25.38696289 C15.53019987 27.93347312 16.73931488 30.47862975 18 33 C16.515 33.495 16.515 33.495 15 34 C14.731875 33.319375 14.46375 32.63875 14.1875 31.9375 C11.3397686 24.89311181 8.15070582 18.1454042 4.59179688 11.43359375 C2.78535963 7.94554027 2 6.01180484 2 2 C1.34 2 0.68 2 0 2 C-0.0825 2.639375 -0.165 3.27875 -0.25 3.9375 C-1.48193035 8.96788225 -3.29663925 14.29663925 -7 18 C-6.44380331 13.3110507 -5.11817327 9.80075733 -2.9375 5.625 C-2.38964844 4.56539063 -1.84179688 3.50578125 -1.27734375 2.4140625 C-0.85582031 1.61742188 -0.43429688 0.82078125 0 0 Z " fill="#24689D" transform="translate(104,119)"/>
<path d="M0 0 C0.66 0 1.32 0 2 0 C2.66 2.97 3.32 5.94 4 9 C2.68 9.33 1.36 9.66 0 10 C-1.56473341 12.06702585 -1.56473341 12.06702585 -2.75 14.5625 C-3.17796875 15.38878906 -3.6059375 16.21507812 -4.046875 17.06640625 C-4.36140625 17.70449219 -4.6759375 18.34257812 -5 19 C-5.66 19 -6.32 19 -7 19 C-10.465 26.425 -10.465 26.425 -14 34 C-14.66 34 -15.32 34 -16 34 C-13.83836487 27.06001352 -11.1063786 20.56882431 -8 14 C-7.34 14 -6.68 14 -6 14 C-5.18247697 12.41925436 -4.37118003 10.83528777 -3.5625 9.25 C-2.88380859 7.92742187 -2.88380859 7.92742187 -2.19140625 6.578125 C-1.16544602 4.35801434 -0.48491397 2.38555381 0 0 Z " fill="#1C73BB" transform="translate(104,121)"/>
<path d="M0 0 C2 1 2 1 2.9375 2.6875 C3.02451033 5.90688204 1.37270429 7.12888866 -0.71875 9.40625 C-2.56892677 11.7076894 -3.26012319 14.1750158 -4 17 C-4.66 17 -5.32 17 -6 17 C-6.09796875 17.60328125 -6.1959375 18.2065625 -6.296875 18.828125 C-7.20946904 23.70578282 -7.87595723 26.83823388 -12 30 C-11.40234041 24.88403387 -9.79451853 20.75923393 -7.6875 16.125 C-7.37353271 15.42117187 -7.05956543 14.71734375 -6.73608398 13.9921875 C-4.61307583 9.26344543 -2.3947664 4.59795149 0 0 Z " fill="#2168A5" transform="translate(57,219)"/>
<path d="M0 0 C0.66 0 1.32 0 2 0 C5.66045064 4.38728653 5.29453705 8.31104149 4.875 13.6875 C4.83890625 14.45900391 4.8028125 15.23050781 4.765625 16.02539062 C4.6171875 18.26171875 4.6171875 18.26171875 4 22 C3.01 22.66 2.02 23.32 1 24 C1.01740234 22.02966797 1.01740234 22.02966797 1.03515625 20.01953125 C1.04453828 18.28385559 1.05363804 16.54817839 1.0625 14.8125 C1.07087891 13.94818359 1.07925781 13.08386719 1.08789062 12.19335938 C1.10396812 7.99713231 1.07559038 4.09063114 0 0 Z M5 0 C6.98 0.99 6.98 0.99 9 2 C8.67 3.65 8.34 5.3 8 7 C7.34 7 6.68 7 6 7 C5.67 4.69 5.34 2.38 5 0 Z " fill="#1982BF" transform="translate(304,153)"/>
<path d="M0 0 C0.66 0 1.32 0 2 0 C2.19511725 2.74965228 2.38136433 5.49942132 2.5625 8.25 C2.61857422 9.02730469 2.67464844 9.80460938 2.73242188 10.60546875 C2.78076172 11.35957031 2.82910156 12.11367187 2.87890625 12.890625 C2.9260376 13.58188477 2.97316895 14.27314453 3.02172852 14.98535156 C2.99849388 17.13964592 2.55611139 18.92641011 2 21 C2.14327769 24.45168992 2.44148093 27.88296186 4 31 C3.34 31 2.68 31 2 31 C2 31.66 2 32.32 2 33 C1.34 33 0.68 33 0 33 C0 22.11 0 11.22 0 0 Z " fill="#188FD6" transform="translate(234,140)"/>
<path d="M0 0 C5 6.36363636 5 6.36363636 5 11 C-2.26 11 -9.52 11 -17 11 C-21 4 -21 4 -21 1 C-20.34 1 -19.68 1 -19 1 C-16 6.625 -16 6.625 -16 10 C-9.73 10 -3.46 10 3 10 C3 9.01 3 8.02 3 7 C2.34 7 1.68 7 1 7 C-1 4 -1 4 -0.625 1.8125 C-0.315625 0.9153125 -0.315625 0.9153125 0 0 Z " fill="#337EB4" transform="translate(165,247)"/>
<path d="M0 0 C0.66 0.66 1.32 1.32 2 2 C1.67 2.66 1.34 3.32 1 4 C1.66 4.33 2.32 4.66 3 5 C2.01 5.495 2.01 5.495 1 6 C7.27 6.33 13.54 6.66 20 7 C19.67 7.66 19.34 8.32 19 9 C11.74 9 4.48 9 -3 9 C-2.01 6.03 -1.02 3.06 0 0 Z " fill="#1B64A0" transform="translate(43,249)"/>
<path d="M0 0 C0.99 0 1.98 0 3 0 C7 6.5 7 6.5 7 11 C3.92382812 11.29296875 3.92382812 11.29296875 0.84765625 11.5859375 C0.23792969 11.72257813 -0.37179688 11.85921875 -1 12 C-1.33 12.66 -1.66 13.32 -2 14 C-2.33 13.01 -2.66 12.02 -3 11 C-2.01 11 -1.02 11 0 11 C0 9.9275 0 8.855 0 7.75 C0 5.16666667 0 2.58333333 0 0 Z " fill="#197DC2" transform="translate(129,179)"/>
<path d="M0 0 C0 0.66 0 1.32 0 2 C-3 4 -3 4 -6 4 C-6.185625 4.639375 -6.37125 5.27875 -6.5625 5.9375 C-8 8 -8 8 -11.25 8.625 C-12.4875 8.74875 -13.725 8.8725 -15 9 C-17.01416562 9.62256028 -19.02015519 10.27566653 -21 11 C-21.33 10.34 -21.66 9.68 -22 9 C-2.63106796 0 -2.63106796 0 0 0 Z " fill="#2A6EA4" transform="translate(104,207)"/>
<path d="M0 0 C0.66 0 1.32 0 2 0 C2 0.99 2 1.98 2 3 C2.66 3 3.32 3 4 3 C4.66 4.65 5.32 6.3 6 8 C6.66 8 7.32 8 8 8 C7.44271087 11.34373475 6.64826111 14.03312999 5 17 C3 15 3 15 2.8046875 13.0546875 C2.86979167 11.03645833 2.93489583 9.01822917 3 7 C2.01 7 1.02 7 0 7 C0 4.69 0 2.38 0 0 Z " fill="#2173B9" transform="translate(88,173)"/>
<path d="M0 0 C0.66 0 1.32 0 2 0 C5 5.75 5 5.75 5 8 C5.66 8 6.32 8 7 8 C7 8.66 7 9.32 7 10 C3.7 10 0.4 10 -3 10 C-2.21674128 6.86696513 -1.40090241 4.80180482 0 2 C0 1.34 0 0.68 0 0 Z " fill="#1C89D2" transform="translate(161,246)"/>
<path d="M0 0 C0.33 0 0.66 0 1 0 C1.46909786 10.88046418 1.00272711 19.72514247 -3 30 C-3.66 29.67 -4.32 29.34 -5 29 C-4.71617054 27.24871182 -4.42260471 25.49899997 -4.125 23.75 C-3.96257812 22.77546875 -3.80015625 21.8009375 -3.6328125 20.796875 C-3 18 -3 18 -1.96875 16.09375 C-0.54886813 13.02497306 -0.56154843 10.10787167 -0.375 6.75 C-0.30023438 5.48671875 -0.22546875 4.2234375 -0.1484375 2.921875 C-0.09945313 1.95765625 -0.05046875 0.9934375 0 0 Z " fill="#3583AE" transform="translate(326,157)"/>
<path d="M0 0 C0.66 0 1.32 0 2 0 C2 0.66 2 1.32 2 2 C2.66 2 3.32 2 4 2 C4 2.66 4 3.32 4 4 C4.66 4 5.32 4 6 4 C5.67 4.99 5.34 5.98 5 7 C3.02 7 1.04 7 -1 7 C-1.625 5.1875 -1.625 5.1875 -2 3 C-1.34 2.01 -0.68 1.02 0 0 Z M-6 7 C-4.35 7 -2.7 7 -1 7 C-2.32 8.32 -3.64 9.64 -5 11 C-5.33 9.68 -5.66 8.36 -6 7 Z " fill="#1E89CC" transform="translate(314,137)"/>
<path d="M0 0 C0.99 0.33 1.98 0.66 3 1 C-2.33149889 5.798349 -7.60542339 10 -15 10 C-15 9.34 -15 8.68 -15 8 C-14.34 8 -13.68 8 -13 8 C-13 7.34 -13 6.68 -13 6 C-9.7 5.34 -6.4 4.68 -3 4 C-2.67 3.01 -2.34 2.02 -2 1 C-1.34 0.67 -0.68 0.34 0 0 Z " fill="#3D91BA" transform="translate(311,199)"/>
<path d="M0 0 C0.99 0.33 1.98 0.66 3 1 C2.86722656 1.97839844 2.73445312 2.95679688 2.59765625 3.96484375 C1.65235754 10.96881029 0.7399198 17.97076186 0 25 C-0.33 25 -0.66 25 -1 25 C-1.11039334 16.59784035 -0.95458649 8.35263176 0 0 Z " fill="#1F9FDF" transform="translate(235,200)"/>
<path d="M0 0 C2.64 0.66 5.28 1.32 8 2 C7.67 2.66 7.34 3.32 7 4 C4.4375 4.625 4.4375 4.625 2 5 C1.67 5.99 1.34 6.98 1 8 C-0.65 8.33 -2.3 8.66 -4 9 C-3.67 7.35 -3.34 5.7 -3 4 C-2.34 4 -1.68 4 -1 4 C-0.67 2.68 -0.34 1.36 0 0 Z " fill="#1E97D8" transform="translate(204,184)"/>
<path d="M0 0 C0.67119549 1.4562545 1.33681807 2.91507867 2 4.375 C2.556875 5.59316406 2.556875 5.59316406 3.125 6.8359375 C4 9 4 9 4 11 C2.35 10.67 0.7 10.34 -1 10 C-1.33 9.01 -1.66 8.02 -2 7 C-1.67 6.67 -1.34 6.34 -1 6 C-1.40929986 3.94603274 -1.40929986 3.94603274 -2 2 C-3.32 1.67 -4.64 1.34 -6 1 C-3 0 -3 0 0 0 Z " fill="#3185B4" transform="translate(150,212)"/>
<path d="M0 0 C-1 2 -1 2 -4.125 3.125 C-7.90058738 3.97755199 -11.14638912 4.15729024 -15 4 C-15 4.66 -15 5.32 -15 6 C-17.97 5.505 -17.97 5.505 -21 5 C-14.6914269 1.59396288 -7.18896416 -0.58288899 0 0 Z " fill="#297AB4" transform="translate(165,189)"/>
<path d="M0 0 C-1.62017842 1.33918806 -3.24629343 2.6711969 -4.875 4 C-5.77992187 4.7425 -6.68484375 5.485 -7.6171875 6.25 C-10 8 -10 8 -12 8 C-12 8.66 -12 9.32 -12 10 C-12.66 10 -13.32 10 -14 10 C-14 9.01 -14 8.02 -14 7 C-10.66666667 4 -10.66666667 4 -8 4 C-8 3.34 -8 2.68 -8 2 C-8.66 1.67 -9.32 1.34 -10 1 C-3.375 -1.125 -3.375 -1.125 0 0 Z " fill="#23699F" transform="translate(80,243)"/>
<path d="M0 0 C1.30230734 3.00646952 0.96485975 4.09355667 -0.21484375 7.234375 C-0.78332031 8.39453125 -1.35179688 9.5546875 -1.9375 10.75 C-2.50339844 11.92046875 -3.06929688 13.0909375 -3.65234375 14.296875 C-4.09707031 15.18890625 -4.54179688 16.0809375 -5 17 C-5.66 17 -6.32 17 -7 17 C-5.1668733 11.00067626 -2.92678249 5.55079437 0 0 Z " fill="#1F63A1" transform="translate(95,138)"/>
<path d="M0 0 C0.66 0 1.32 0 2 0 C2 0.66 2 1.32 2 2 C3.32 2 4.64 2 6 2 C6 2.66 6 3.32 6 4 C0.39 4 -5.22 4 -11 4 C-10.67 3.34 -10.34 2.68 -10 2 C-7.96875 1.62109375 -7.96875 1.62109375 -5.5 1.4375 C-2.45018475 1.4207737 -2.45018475 1.4207737 0 0 Z " fill="#1C8DD0" transform="translate(282,136)"/>
<path d="M0 0 C1.65 0.33 3.3 0.66 5 1 C5 2.65 5 4.3 5 6 C3 5 3 5 2 2 C0.68 4.97 -0.64 7.94 -2 11 C-2.33 11 -2.66 11 -3 11 C-3.32613618 6.32538149 -2.70582788 3.83325617 0 0 Z " fill="#256A9F" transform="translate(103,162)"/>
<path d="M0 0 C2.4320057 1.21600285 4.7272325 2.50475822 7 4 C7 4.66 7 5.32 7 6 C7.66 6 8.32 6 9 6 C9 6.66 9 7.32 9 8 C9.66 8 10.32 8 11 8 C10.67 9.32 10.34 10.64 10 12 C9.505 11.2575 9.01 10.515 8.5 9.75 C5.40124842 6.34137326 2.17233866 4.81273937 -2 3 C-1.34 2.01 -0.68 1.02 0 0 Z " fill="#2F82B7" transform="translate(293,141)"/>
<path d="M0 0 C5 6.36363636 5 6.36363636 5 11 C1.7 11 -1.6 11 -5 11 C-5 10.67 -5 10.34 -5 10 C-2.36 10 0.28 10 3 10 C3 9.01 3 8.02 3 7 C2.34 7 1.68 7 1 7 C-1 4 -1 4 -0.625 1.8125 C-0.41875 1.214375 -0.2125 0.61625 0 0 Z " fill="#2D78AA" transform="translate(165,247)"/>
<path d="M0 0 C0.66 0 1.32 0 2 0 C2.33 1.65 2.66 3.3 3 5 C3.99 5 4.98 5 6 5 C6.33 3.68 6.66 2.36 7 1 C7.33 2.65 7.66 4.3 8 6 C7.01 6.495 7.01 6.495 6 7 C6.33 9.31 6.66 11.62 7 14 C4.60926851 11.06810006 3.15892693 8.27856712 1.8125 4.75 C1.46832031 3.85796875 1.12414062 2.9659375 0.76953125 2.046875 C0.51558594 1.37140625 0.26164063 0.6959375 0 0 Z " fill="#2C7DB3" transform="translate(135,229)"/>
<path d="M0 0 C1.98 0 3.96 0 6 0 C7.24546405 2.49092811 6.7767578 3.41080733 6 6 C4.68 6 3.36 6 2 6 C2.33 4.68 2.66 3.36 3 2 C2.01 2 1.02 2 0 2 C0 1.34 0 0.68 0 0 Z M7 0 C7.99 0 8.98 0 10 0 C9.67 0.99 9.34 1.98 9 3 C8.34 2.01 7.68 1.02 7 0 Z " fill="#1A8ACD" transform="translate(168,190)"/>
<path d="M0 0 C0.99 0.495 0.99 0.495 2 1 C2 1.66 2 2.32 2 3 C2.66 3 3.32 3 4 3 C6.43160605 6.36683915 7 7.73350364 7 12 C4 11 4 11 2.83203125 9.2578125 C2.49558594 8.55398437 2.15914063 7.85015625 1.8125 7.125 C1.46832031 6.42632812 1.12414062 5.72765625 0.76953125 5.0078125 C0 3 0 3 0 0 Z " fill="#3390BB" transform="translate(306,224)"/>
<path d="M0 0 C0.66 0 1.32 0 2 0 C3.2263757 2.45275141 3.11415314 4.0505781 3.09765625 6.7890625 C3.09443359 7.73007813 3.09121094 8.67109375 3.08789062 9.640625 C3.07951172 10.62546875 3.07113281 11.6103125 3.0625 12.625 C3.05798828 13.61757812 3.05347656 14.61015625 3.04882812 15.6328125 C3.03702145 18.0886016 3.020554 20.54427104 3 23 C2.34 23.33 1.68 23.66 1 24 C1.01740234 22.02966797 1.01740234 22.02966797 1.03515625 20.01953125 C1.04453828 18.28385559 1.05363804 16.54817839 1.0625 14.8125 C1.07087891 13.94818359 1.07925781 13.08386719 1.08789062 12.19335938 C1.10396812 7.99713231 1.07559038 4.09063114 0 0 Z " fill="#418BB6" transform="translate(304,153)"/>
<path d="M0 0 C0 0.99 0 1.98 0 3 C-0.99 2.67 -1.98 2.34 -3 2 C-3.66 2.66 -4.32 3.32 -5 4 C-8.625 3.625 -8.625 3.625 -12 3 C-8.2699487 -0.7300513 -5.02945658 -1.43698759 0 0 Z " fill="#38A5E1" transform="translate(279,209)"/>
<path d="M0 0 C0.66 0.33 1.32 0.66 2 1 C3.70702735 1.06996014 5.41668003 1.08440154 7.125 1.0625 C8.03507813 1.05347656 8.94515625 1.04445312 9.8828125 1.03515625 C10.93082031 1.01775391 10.93082031 1.01775391 12 1 C5.66666667 5.22222222 5.66666667 5.22222222 1.1875 4.625 C0.465625 4.41875 -0.25625 4.2125 -1 4 C-0.67 2.68 -0.34 1.36 0 0 Z " fill="#2C7EB6" transform="translate(145,203)"/>
<path d="M0 0 C-3.96 1.98 -3.96 1.98 -8 4 C-7.67 5.32 -7.34 6.64 -7 8 C-7.66 8 -8.32 8 -9 8 C-11 5 -11 5 -11 2 C-4.5 -1.125 -4.5 -1.125 0 0 Z " fill="#256DAC" transform="translate(142,217)"/>
<path d="M0 0 C-2.51699845 2.51699845 -4.57554146 3.10964078 -8 4 C-11.05601978 3.66044225 -11.7833378 3.2166622 -14 1 C-12.04310963 0.63794536 -10.08442332 0.28558579 -8.125 -0.0625 C-7.03445312 -0.25972656 -5.94390625 -0.45695313 -4.8203125 -0.66015625 C-2 -1 -2 -1 0 0 Z " fill="#2C81B4" transform="translate(188,185)"/>
<path d="M0 0 C0.99 0.495 0.99 0.495 2 1 C2 2.32 2 3.64 2 5 C2.66 5.33 3.32 5.66 4 6 C4.73075648 8.3140622 5.40138258 10.64828869 6 13 C3 12 3 12 1.3125 8.75 C0.16055679 5.45873369 -0.31025348 3.4127883 0 0 Z " fill="#2A7AA9" transform="translate(158,232)"/>
<path d="M0 0 C0.66 0.33 1.32 0.66 2 1 C0.68938409 5.23429756 -0.94356259 9.07407404 -3 13 C-3.66 13 -4.32 13 -5 13 C-4.67 11.35 -4.34 9.7 -4 8 C-3.34 8 -2.68 8 -2 8 C-1.7834375 6.576875 -1.7834375 6.576875 -1.5625 5.125 C-1 2 -1 2 0 0 Z " fill="#1D659D" transform="translate(84,203)"/>
<path d="M0 0 C0.33 0.99 0.66 1.98 1 3 C-2.08748791 6.35212973 -4.51708756 8.85053527 -9 10 C-11.15234375 9.5390625 -11.15234375 9.5390625 -13 9 C-11.96939453 8.52820313 -11.96939453 8.52820313 -10.91796875 8.046875 C-10.01691406 7.61890625 -9.11585938 7.1909375 -8.1875 6.75 C-7.29417969 6.33234375 -6.40085937 5.9146875 -5.48046875 5.484375 C-2.89071669 3.93460211 -1.61819166 2.51599234 0 0 Z " fill="#3F91BE" transform="translate(303,180)"/>
<path d="M0 0 C0.66 0 1.32 0 2 0 C4.04169485 2.90548882 5 4.40142046 5 8 C4.34 8 3.68 8 3 8 C2.67 8.66 2.34 9.32 2 10 C0.41727399 8.41727399 0.65264253 6.61965997 0.4375 4.4375 C0.35371094 3.61121094 0.26992188 2.78492188 0.18359375 1.93359375 C0.12300781 1.29550781 0.06242187 0.65742188 0 0 Z " fill="#3195C4" transform="translate(315,237)"/>
<path d="M0 0 C0.66 0 1.32 0 2 0 C3.02611949 1.65071396 4.02308143 3.31970006 5 5 C5.804375 5.7425 5.804375 5.7425 6.625 6.5 C8.4724141 8.51536084 8.64031493 10.33833049 9 13 C5.48026899 9.74098981 2.47239725 6.1139069 0 2 C0 1.34 0 0.68 0 0 Z " fill="#429CC3" transform="translate(285,227)"/>
<path d="M0 0 C-1.74635165 0.53293835 -3.49727652 1.05090663 -5.25 1.5625 C-6.22453125 1.85253906 -7.1990625 2.14257812 -8.203125 2.44140625 C-10.96243932 2.99249836 -12.3912824 2.93789609 -15 2 C-9.92264418 -0.84331926 -5.28364004 -3.10529722 0 0 Z " fill="#327EAE" transform="translate(188,196)"/>
<path d="M0 0 C0.66 0.66 1.32 1.32 2 2 C0.35 5.3 -1.3 8.6 -3 12 C-4.10946457 7.5621417 -3.70005894 6.11593218 -2 2 C-1.34 1.34 -0.68 0.68 0 0 Z " fill="#2367A0" transform="translate(90,191)"/>
<path d="M0 0 C3.32993034 3.82941989 5.05324525 8.37522222 7 13 C6.01 13.33 5.02 13.66 4 14 C-0.59225513 4.58997722 -0.59225513 4.58997722 0 0 Z " fill="#2D6E9F" transform="translate(115,139)"/>
<path d="M0 0 C0.66 0 1.32 0 2 0 C2.66 1.65 3.32 3.3 4 5 C4.66 5 5.32 5 6 5 C6.66 6.65 7.32 8.3 8 10 C5.00675737 8.9024777 4.15389099 8.32317108 2.75 5.375 C2.5025 4.59125 2.255 3.8075 2 3 C1.34 3 0.68 3 0 3 C0 2.01 0 1.02 0 0 Z " fill="#3990B7" transform="translate(298,214)"/>
<path d="M0 0 C-0.66 1.98 -1.32 3.96 -2 6 C-2.66 6 -3.32 6 -4 6 C-4.66 7.32 -5.32 8.64 -6 10 C-6.33 9.34 -6.66 8.68 -7 8 C-6.125 6.0625 -6.125 6.0625 -5 4 C-4.67 3.01 -4.34 2.02 -4 1 C-2 0 -2 0 0 0 Z " fill="#2D87B3" transform="translate(322,187)"/>
<path d="M0 0 C2.31 0 4.62 0 7 0 C6 3 6 3 4.0625 4.25 C3.381875 4.4975 2.70125 4.745 2 5 C1.34 4.67 0.68 4.34 0 4 C0 2.68 0 1.36 0 0 Z " fill="#1A87C7" transform="translate(234,123)"/>
<path d="M0 0 C0.33 0.99 0.66 1.98 1 3 C1.99 2.67 2.98 2.34 4 2 C4.33 2.99 4.66 3.98 5 5 C4.38125 5.28875 3.7625 5.5775 3.125 5.875 C0.86674235 6.93720042 0.86674235 6.93720042 -1 9 C-1.33 6.36 -1.66 3.72 -2 1 C-1.34 0.67 -0.68 0.34 0 0 Z " fill="#2383CD" transform="translate(135,219)"/>
<path d="M0 0 C-1.76371818 1.03307771 -3.53625033 2.05112049 -5.3125 3.0625 C-6.79169922 3.91521484 -6.79169922 3.91521484 -8.30078125 4.78515625 C-11 6 -11 6 -14 5 C-11.75043698 2.75043698 -9.93676737 1.99489035 -7 0.8125 C-6.113125 0.44769531 -5.22625 0.08289063 -4.3125 -0.29296875 C-2 -1 -2 -1 0 0 Z " fill="#2F72A1" transform="translate(119,202)"/>
<path d="M0 0 C0.66 0 1.32 0 2 0 C2.33 0.99 2.66 1.98 3 3 C-3.5 6 -3.5 6 -8 6 C-8 5.34 -8 4.68 -8 4 C-5.36 3.67 -2.72 3.34 0 3 C0 2.01 0 1.02 0 0 Z " fill="#2B6C9A" transform="translate(136,187)"/>
<path d="M0 0 C1.79068573 2.6860286 2.66055791 4.6626589 3.625 7.6875 C3.88539063 8.49574219 4.14578125 9.30398437 4.4140625 10.13671875 C4.60742188 10.75160156 4.80078125 11.36648437 5 12 C2.12049214 9.3991542 0.78262987 7.78271103 0 4 C-0.66 3.67 -1.32 3.34 -2 3 C-1.34 2.01 -0.68 1.02 0 0 Z " fill="#2573AB" transform="translate(132,175)"/>
<path d="M0 0 C0.66 0 1.32 0 2 0 C2 1.32 2 2.64 2 4 C2.66 4 3.32 4 4 4 C4.33 4.99 4.66 5.98 5 7 C4.01 8.485 4.01 8.485 3 10 C2.690625 9.360625 2.38125 8.72125 2.0625 8.0625 C1.1654837 6.06389179 1.1654837 6.06389179 0 5 C-0.04063832 3.33382885 -0.042721 1.66611905 0 0 Z " fill="#309BD3" transform="translate(294,207)"/>
<path d="M0 0 C0.66 0 1.32 0 2 0 C1.44271087 3.34373475 0.64826111 6.03312999 -1 9 C-1.66 8.34 -2.32 7.68 -3 7 C-2.01 4.69 -1.02 2.38 0 0 Z " fill="#1E6B9F" transform="translate(94,181)"/>
<path d="M0 0 C0.66 0.33 1.32 0.66 2 1 C2 1.66 2 2.32 2 3 C1.34 3 0.68 3 0 3 C-0.33 3.66 -0.66 4.32 -1 5 C-2.32 4.34 -3.64 3.68 -5 3 C-5 2.34 -5 1.68 -5 1 C-3 0 -3 0 0 0 Z " fill="#1E82C5" transform="translate(134,208)"/>
<path d="M0 0 C-2 1 -4 2 -6 3 C-8.125 2.0625 -8.125 2.0625 -10 1 C-6.1496895 -1.56687367 -4.41430237 -0.83288724 0 0 Z " fill="#247AAE" transform="translate(175,188)"/>
<path d="M0 0 C-3.22791555 2.1519437 -4.28400809 2.20086443 -8 2 C-8 1.01 -8 0.02 -8 -1 C-4.59745511 -2.2151946 -3.06748874 -1.86240388 0 0 Z " fill="#2289C3" transform="translate(213,189)"/>
<path d="M0 0 C0.99 0.495 0.99 0.495 2 1 C2 1.66 2 2.32 2 3 C2.66 3 3.32 3 4 3 C4 3.66 4 4.32 4 5 C4.66 5 5.32 5 6 5 C6.33 6.32 6.66 7.64 7 9 C5 9 5 9 2.9375 7.3125 C0.82124375 4.78664577 0.35880982 3.22928839 0 0 Z " fill="#3F8BB5" transform="translate(320,244)"/>
<path d="M0 0 C-1.12073862 0.83905565 -2.24674547 1.67107831 -3.375 2.5 C-4.00148438 2.9640625 -4.62796875 3.428125 -5.2734375 3.90625 C-7 5 -7 5 -9 5 C-8.00233891 2.50584728 -7.31383315 1.21259665 -5.0625 -0.3125 C-3 -1 -3 -1 0 0 Z " fill="#20659E" transform="translate(97,232)"/>
<path d="M0 0 C1.04449911 3.13349732 0.93423645 3.98968256 0 7 C-0.99 7 -1.98 7 -3 7 C-3.1875 4.625 -3.1875 4.625 -3 2 C-2.01 1.34 -1.02 0.68 0 0 Z " fill="#278FC5" transform="translate(307,175)"/>
<path d="M0 0 C0.66 0 1.32 0 2 0 C0.84414715 3.91211733 -0.35534962 6.8745041 -3 10 C-2.49287967 6.28111761 -1.88391785 3.26545761 0 0 Z " fill="#226195" transform="translate(100,127)"/>
<path d="M0 0 C1.65 0 3.3 0 5 0 C5.33 1.32 5.66 2.64 6 4 C4.35 3.67 2.7 3.34 1 3 C0.67 2.01 0.34 1.02 0 0 Z " fill="#267DB7" transform="translate(148,219)"/>
<path d="M0 0 C-1.98 0.33 -3.96 0.66 -6 1 C-6 1.66 -6 2.32 -6 3 C-8.97 2.505 -8.97 2.505 -12 2 C-7.72170329 -0.29194467 -4.74957752 -1.52664992 0 0 Z " fill="#317DAD" transform="translate(156,192)"/>
<path d="M0 0 C2.15377564 2.62198774 3.40072174 4.64404172 4 8 C3.01 7.67 2.02 7.34 1 7 C-0.1875 3.9375 -0.1875 3.9375 -1 1 C-0.67 0.67 -0.34 0.34 0 0 Z " fill="#286DA2" transform="translate(126,163)"/>
<path d="M0 0 C-2.62198774 2.15377564 -4.64404172 3.40072174 -8 4 C-8.33 3.34 -8.66 2.68 -9 2 C-5.86501708 0.14223235 -3.62528568 -0.20140476 0 0 Z " fill="#1F689F" transform="translate(91,214)"/>
<path d="M0 0 C0.33 0.99 0.66 1.98 1 3 C3.00016466 4.20882096 3.00016466 4.20882096 5 5 C4.67 5.66 4.34 6.32 4 7 C2.68 6.67 1.36 6.34 0 6 C0 4.02 0 2.04 0 0 Z " fill="#197BC8" transform="translate(121,161)"/>
</svg>
