<?xml version="1.0" encoding="UTF-8"?>
<svg version="1.1" xmlns="http://www.w3.org/2000/svg" width="1414" height="2000">
<path d="M0 0 C466.62 0 933.24 0 1414 0 C1414 660 1414 1320 1414 2000 C947.38 2000 480.76 2000 0 2000 C0 1340 0 680 0 0 Z " fill="#009C8C" transform="translate(0,0)"/>
<path d="M0 0 C466.62 0 933.24 0 1414 0 C1414 660 1414 1320 1414 2000 C947.38 2000 480.76 2000 0 2000 C0 1340 0 680 0 0 Z M631.11824036 366.51530457 C626.14714976 367.10773485 621.16834466 367.61940528 616.18760681 368.12359619 C602.28539152 369.57819718 588.6631178 372.0854304 575 375 C574.27345215 375.15424438 573.5469043 375.30848877 572.79833984 375.46740723 C527.50839054 385.09734553 483.58850335 397.62101418 441 416 C439.84902832 416.49580566 438.69805664 416.99161133 437.51220703 417.50244141 C411.28484278 428.87492493 385.55281132 441.32563893 361 456 C360.23864746 456.45294434 359.47729492 456.90588867 358.69287109 457.37255859 C335.57611718 471.17116187 312.89601708 485.96466851 291.74023438 502.63818359 C289.74909836 504.1963425 287.74248731 505.73331647 285.734375 507.26953125 C276.48944122 514.36176563 267.54679643 521.69208708 258.81787109 529.40869141 C257.00583034 530.9948963 255.17348934 532.55355732 253.33203125 534.10546875 C243.97863335 542.01817447 235.30732646 550.49372542 226.72998047 559.23754883 C223.85867536 562.16274662 220.95412322 565.05397266 218.04345703 567.93994141 C215.7353254 570.22880904 213.43013407 572.52061383 211.125 574.8125 C210.34769531 575.58142578 209.57039062 576.35035156 208.76953125 577.14257812 C203.9637986 581.92811862 199.39679589 586.83752278 195 592 C194.01459117 593.14085676 193.02892429 594.28149069 192.04296875 595.421875 C189.01976487 598.94034422 186.00848637 602.4689453 183 606 C182.16210938 606.98097656 181.32421875 607.96195313 180.4609375 608.97265625 C173.85509575 616.79423109 167.64040606 624.89006999 161.47070312 633.05761719 C160.23277695 634.69256749 158.98473163 636.31984888 157.734375 637.9453125 C132.30022361 671.2426939 110.7691477 707.57828317 92 745 C91.58089355 745.83418457 91.16178711 746.66836914 90.72998047 747.52783203 C75.49666284 778.09694706 62.81694585 810.30463753 53 843 C52.49398066 844.65900403 51.98745681 846.31785425 51.48046875 847.9765625 C50.96542989 849.67165763 50.45108873 851.36696494 49.9375 853.0625 C49.71610352 853.79267334 49.49470703 854.52284668 49.26660156 855.27514648 C48.49672622 857.84611909 47.7454523 860.421828 47 863 C46.81819183 863.62699799 46.63638367 864.25399597 46.44906616 864.8999939 C43.17595964 876.24622172 40.38761092 887.63721473 37.9375 899.1875 C37.76602448 899.98849121 37.59454895 900.78948242 37.4178772 901.61474609 C33.33263481 920.71539321 29.99130173 939.87464081 27.37548828 959.23242188 C27.09890014 961.27104549 26.81492965 963.30867084 26.52685547 965.34570312 C15.66204428 1043.67196374 20.01971749 1128.97660916 40.36962891 1205.56445312 C41.12961897 1208.50080512 41.78295995 1211.45343643 42.42895508 1214.41650391 C45.02122285 1226.1618748 48.70198649 1237.59945119 52.37310791 1249.04388428 C53.02774624 1251.08657768 53.67865338 1253.13044062 54.32958984 1255.17431641 C66.1763251 1292.26280113 81.01205883 1327.66246407 98.67602539 1362.37792969 C99.60473242 1364.21719089 100.52224512 1366.06212705 101.43139648 1367.91113281 C104.84922007 1374.85091024 108.51550267 1381.58305638 112.4375 1388.25 C113.03949219 1389.27577148 113.64148438 1390.30154297 114.26171875 1391.35839844 C125.11841454 1409.75758174 136.53548412 1427.64875576 149 1445 C149.71285156 1446.00675781 150.42570313 1447.01351563 151.16015625 1448.05078125 C157.49207953 1456.91009641 164.2770552 1465.43649759 171 1474 C172.11761719 1475.42892578 172.11761719 1475.42892578 173.2578125 1476.88671875 C181.35003713 1487.12896959 189.95282046 1496.95180455 198.78125 1506.5625 C200.66803169 1508.63530242 202.497533 1510.73974471 204.3125 1512.875 C209.08215827 1518.37319795 214.33994611 1523.41709945 219.51391602 1528.53027344 C223.00697575 1531.98488484 226.46764515 1535.47144524 229.92578125 1538.9609375 C231.3879633 1540.43234884 232.8502043 1541.9037016 234.3125 1543.375 C235.03373047 1544.10460938 235.75496094 1544.83421875 236.49804688 1545.5859375 C241.16438519 1550.2732011 245.97514789 1554.70153282 251 1559 C252.21443316 1560.05757089 253.42799297 1561.11614562 254.640625 1562.17578125 C265.97049993 1572.03249361 277.41317513 1581.66634392 289.37207031 1590.75439453 C291.5032833 1592.38508569 293.61179177 1594.0445059 295.72436523 1595.69921875 C302.94800134 1601.33154501 310.42792487 1606.5448489 318.02099609 1611.66503906 C319.88879413 1612.92498474 321.75132878 1614.19237697 323.61328125 1615.4609375 C383.83331386 1656.27673738 452.68802575 1690.01018806 523.54296875 1707.578125 C527.36896853 1708.53687553 531.09766716 1709.66563044 534.84765625 1710.88671875 C543.24060314 1713.50638238 551.81375666 1715.2193834 560.41845703 1716.98217773 C563.23223514 1717.55885911 566.04395161 1718.14482707 568.85546875 1718.73242188 C613.61757484 1728.03787291 658.50995985 1732.59514312 704.20446777 1732.26428223 C707.38724494 1732.24500465 710.56996675 1732.24115768 713.75279427 1732.23741531 C736.84215316 1732.20799264 759.54846134 1731.40053994 782.5 1728.75 C783.45944519 1728.64051025 784.41889038 1728.53102051 785.40740967 1728.41821289 C800.04323455 1726.73589926 814.47169115 1724.60672485 828.90673828 1721.62939453 C832.19172733 1720.96098871 835.48262766 1720.33345308 838.77734375 1719.71484375 C862.36628099 1715.39303611 862.36628099 1715.39303611 885.48046875 1709.1015625 C888.06206323 1708.29356068 890.62923394 1707.54208497 893.23828125 1706.8359375 C948.90760064 1691.70191737 1003.47668521 1668.5983622 1053 1639 C1054.14202881 1638.3205835 1054.14202881 1638.3205835 1055.30712891 1637.62744141 C1078.41554078 1623.83381758 1101.08940695 1609.04669352 1122.23779297 1592.37939453 C1124.29514996 1590.76896685 1126.36773443 1589.1792055 1128.44140625 1587.58984375 C1135.76382276 1581.96379843 1142.97047897 1576.33652971 1149.7421875 1570.046875 C1152.10797163 1567.90211569 1154.56193666 1565.92302194 1157.0625 1563.9375 C1168.75463192 1554.4708591 1179.46064769 1543.71764962 1190 1533 C1192.97602296 1530.01360762 1195.96626353 1527.04187891 1198.9609375 1524.07421875 C1200.43234884 1522.6120367 1201.9037016 1521.1497957 1203.375 1519.6875 C1204.10460938 1518.96626953 1204.83421875 1518.24503906 1205.5859375 1517.50195312 C1210.27273646 1512.83607738 1214.70863334 1508.03056494 1219 1503 C1219.98550845 1501.85922929 1220.97117867 1500.71859832 1221.95703125 1499.578125 C1231.46952465 1488.50644835 1240.87058765 1477.38291103 1249.68164062 1465.73925781 C1251.02665823 1463.96483088 1252.38031609 1462.19722138 1253.734375 1460.4296875 C1265.93463669 1444.42154126 1277.52321313 1427.92088176 1287.95898438 1410.70556641 C1288.92005329 1409.13098211 1289.90433433 1407.57062859 1290.890625 1406.01171875 C1326.96023454 1348.80046833 1352.63753216 1285.21019898 1370 1220 C1370.49886719 1218.23462891 1370.49886719 1218.23462891 1371.0078125 1216.43359375 C1379.56529926 1185.74119043 1384.83004156 1153.51854135 1388.375 1121.875 C1388.45444855 1121.1663681 1388.53389709 1120.45773621 1388.61575317 1119.72763062 C1389.12067513 1115.15575408 1389.60336246 1110.58266015 1390 1106 C1390.08629166 1105.02759369 1390.17258331 1104.05518738 1390.26148987 1103.05331421 C1391.05334811 1093.25184233 1391.16363051 1083.50520604 1391.16796875 1073.6796875 C1391.17119652 1071.92831396 1391.17456161 1070.17694066 1391.17805481 1068.42556763 C1391.18400515 1064.76629006 1391.18589928 1061.10703596 1391.18530273 1057.44775391 C1391.18522198 1053.75759933 1391.19208924 1050.06757023 1391.20581055 1046.37744141 C1391.28468896 1024.82205923 1391.0406853 1003.47946989 1389 982 C1388.88644669 980.74878357 1388.88644669 980.74878357 1388.77059937 979.47229004 C1388.32772944 974.61929264 1387.81267114 969.77833437 1387.25 964.9375 C1387.12744339 963.87350983 1387.12744339 963.87350983 1387.00241089 962.7880249 C1384.28663346 939.44407287 1380.46098898 916.17435852 1374.60449219 893.40380859 C1373.96626934 890.86586751 1373.3726661 888.320565 1372.7890625 885.76953125 C1370.23897496 874.6405778 1367.26935432 863.72450053 1363.86865234 852.82666016 C1362.93284599 849.7814758 1362.03743005 846.72599823 1361.14453125 843.66796875 C1351.50045892 811.06159769 1338.63438697 779.6626246 1324 749 C1323.20964355 747.33662598 1323.20964355 747.33662598 1322.40332031 745.63964844 C1315.53306682 731.27697977 1307.86525744 717.4799465 1299.6875 703.82373047 C1298.0907482 701.15185093 1296.51149909 698.47048477 1294.9375 695.78515625 C1287.7350837 683.55319949 1280.01372762 671.7143829 1272 660 C1271.40364746 659.12746582 1270.80729492 658.25493164 1270.19287109 657.35595703 C1263.22392414 647.1954999 1256.06759564 637.26369114 1248.33544922 627.67089844 C1246.936904 625.92105502 1245.56178008 624.15479054 1244.19140625 622.3828125 C1239.38503755 616.17517497 1234.47786807 610.18304507 1229.15625 604.40234375 C1226.96458105 601.96053867 1224.91890626 599.4413226 1222.875 596.875 C1213.71484315 585.56517412 1203.36700625 575.19736433 1193 565 C1189.82051874 561.83767421 1186.66928618 558.64892313 1183.5234375 555.453125 C1171.9602802 543.64955878 1171.9602802 543.64955878 1159.421875 532.921875 C1156.71770856 530.77598809 1154.21439347 528.47661762 1151.6875 526.125 C1146.01542472 520.91758625 1140.04363257 516.20496486 1133.94824219 511.51123047 C1131.9240454 509.94108284 1129.91791705 508.34991747 1127.9140625 506.75390625 C1111.38068375 493.64051261 1094.01841079 481.63066395 1076.17382812 470.37158203 C1074.67031139 469.42293457 1073.16915638 468.47053742 1071.66992188 467.51513672 C1012.27771038 429.71035093 945.64289638 400.1933654 877.06494141 383.74267578 C874.13298165 383.03222321 871.21285501 382.28569679 868.29296875 381.52734375 C836.54422529 373.40563504 804.26671207 368.13108845 771.62866211 365.40966797 C768.5205542 365.14632965 765.424863 364.82837764 762.32641602 364.46923828 C745.49208093 362.59526936 728.64685141 362.62518806 711.73022461 362.62939453 C708.315292 362.62955554 704.90090471 362.61588458 701.48608398 362.58837891 C677.79812643 362.40061409 654.64019107 363.70114193 631.11824036 366.51530457 Z " fill="#FEFEFE" transform="translate(0,0)"/>
<path d="M0 0 C3.76044174 0.69902461 7.53580714 1.29100306 11.31445312 1.88134766 C27.75846348 4.46570906 44.08806364 7.17396183 60.31005859 10.94482422 C64.0314185 11.795303 67.76586978 12.58034703 71.50024414 13.37133789 C88.48414828 16.98545305 105.4282825 20.88359305 121.94677734 26.27099609 C125.13016186 27.29862836 128.33058518 28.25100757 131.54673767 29.17181396 C142.76887624 32.39189238 153.83819203 36.04835795 164.89257812 39.79931641 C165.90520721 40.14291199 166.9178363 40.48650757 167.96115112 40.84051514 C200.12185563 51.80320021 231.40456803 64.69026781 261.95507812 79.54931641 C263.79088204 80.42719998 265.62681045 81.30482327 267.46289062 82.18212891 C298.68172751 97.27596579 298.68172751 97.27596579 304.95507812 103.54931641 C305.99324979 110.90531225 306.26557586 118.26304135 306.50585938 125.68212891 C306.56861809 127.57996628 306.56861809 127.57996628 306.63264465 129.5161438 C307.07147406 143.81728566 307.15341028 158.1168981 307.14257812 172.42431641 C307.14245853 173.10375557 307.14233894 173.78319473 307.14221573 174.48322296 C307.13490469 207.49951938 305.52277391 240.14887657 302.29443359 272.99902344 C301.9034888 277.08903728 301.56566106 281.1816435 301.23779297 285.27709961 C296.81826962 339.65879549 287.61750299 394.02639742 274.79150391 447.04443359 C273.95404946 450.55362683 273.14975713 454.06874231 272.35742188 457.58837891 C269.91548849 468.43532187 267.3716263 479.18110293 264.10351562 489.81103516 C263.00143081 493.39843369 261.96888265 496.99861707 260.95507812 500.61181641 C244.61466673 557.98346544 223.66423794 616.09713552 194.31298828 668.13476562 C193.06746245 670.34948164 191.84120237 672.57336975 190.62304688 674.80322266 C176.13114971 701.20888259 158.67364122 724.93963543 138.20507812 746.98681641 C137.6031665 747.63739014 137.00125488 748.28796387 136.38110352 748.95825195 C132.14775094 753.46252057 127.6589972 757.54363532 122.95507812 761.54931641 C121.91012492 762.46129555 120.8658014 763.37399696 119.82226562 764.28759766 C89.46398782 790.4052283 53.60838574 808.21946713 13.95507812 814.54931641 C12.90634521 814.72809326 11.8576123 814.90687012 10.77709961 815.09106445 C1.66228011 816.54531573 -7.28011455 816.91032127 -16.48242188 816.86181641 C-17.22237396 816.85966125 -17.96232605 816.8575061 -18.72470093 816.85528564 C-58.89991727 816.66858229 -94.99911556 806.14014654 -124.13476562 777.49462891 C-125.88220232 775.57861596 -127.47202848 773.61147388 -129.04492188 771.54931641 C-129.810625 770.55802734 -130.57632812 769.56673828 -131.36523438 768.54541016 C-145.71367458 749.5002583 -155.2208925 727.11984228 -159.04492188 703.54931641 C-159.17382812 702.82357422 -159.30273438 702.09783203 -159.43554688 701.35009766 C-160.35754151 695.36926405 -160.04492188 689.70645621 -160.04492188 683.54931641 C-137.76992188 684.04431641 -137.76992188 684.04431641 -115.04492188 684.54931641 C-114.34367187 688.19994141 -113.64242188 691.85056641 -112.91992188 695.61181641 C-108.17075675 718.99341324 -98.1760364 738.9647616 -78.90039062 753.67431641 C-69.40201853 759.91127756 -58.9604649 764.4516623 -48.04492188 767.54931641 C-47.33078125 767.76201172 -46.61664062 767.97470703 -45.88085938 768.19384766 C-35.9231538 770.95106095 -25.54108498 770.73167275 -15.29492188 770.73681641 C-14.02648437 770.7490625 -12.75804687 770.76130859 -11.45117188 770.77392578 C1.44380875 770.793663 13.48860211 769.07332928 25.83007812 765.36181641 C26.86310059 765.05429443 27.89612305 764.74677246 28.96044922 764.42993164 C47.81391219 758.6646654 64.55020978 749.90151399 79.95507812 737.54931641 C80.95796875 736.75138672 81.96085938 735.95345703 82.99414062 735.13134766 C96.22619146 724.38224616 108.65485764 712.14040156 118.95507812 698.54931641 C119.90558638 697.31623379 120.85610819 696.08316163 121.80664062 694.85009766 C167.81567807 634.7325043 195.54681145 560.59489013 215.91113281 488.21191406 C216.63329707 485.6782592 217.36963375 483.15421079 218.13183594 480.6328125 C221.54500092 469.32000481 224.45970854 457.916311 227.20507812 446.42431641 C227.55724899 444.95496643 227.55724899 444.95496643 227.91653442 443.45593262 C234.94033621 414.01130328 240.85756606 384.22318755 245.10351562 354.24462891 C245.6376277 350.49132677 246.27955038 346.77114528 246.97845459 343.04512024 C249.07792374 331.73708756 250.39764591 320.35346654 251.68994141 308.92895508 C252.07989728 305.48841195 252.47981164 302.04912921 252.88085938 298.60986328 C254.10839988 287.95540677 255.24328541 277.34161196 255.73974609 266.62573242 C255.93513823 263.83419472 256.39702157 261.28454547 256.95507812 258.54931641 C257.40506541 253.68304766 257.66784124 248.8026471 257.95507812 243.92431641 C258.02044266 242.82574814 258.02044266 242.82574814 258.08712769 241.70498657 C260.26247184 204.70621147 260.38843743 167.59964559 260.95507812 130.54931641 C260.09454834 130.28159424 259.23401855 130.01387207 258.34741211 129.73803711 C254.96368449 128.5523322 251.88305272 127.1330477 248.67773438 125.52978516 C247.44605974 124.91956167 246.2141137 124.30988577 244.98193359 123.70068359 C244.33722107 123.38079468 243.69250854 123.06090576 243.02825928 122.73132324 C217.33236563 110.02182832 190.85049353 99.44142096 163.95507812 89.54931641 C162.12589844 88.87376709 162.12589844 88.87376709 160.25976562 88.18457031 C147.01264826 83.30928251 133.81766439 78.67568145 120.15087891 75.13232422 C116.94110934 74.28009721 113.75390167 73.35380121 110.56420898 72.4296875 C106.97810934 71.39147357 103.38690576 70.37164871 99.79492188 69.35400391 C97.89068297 68.81442589 95.9870417 68.27273457 94.08398438 67.72900391 C74.23545862 62.08812142 54.16052469 57.68649658 33.95507812 53.54931641 C32.73675293 53.29907715 31.51842773 53.04883789 30.26318359 52.79101562 C10.99342198 48.8902203 -8.4468368 46.29958557 -27.94036865 43.8208313 C-29.95372049 43.56108258 -31.9654397 43.2887718 -33.97705078 43.01586914 C-44.97476262 41.55630913 -55.9798241 40.73657285 -67.04492188 39.98681641 C-68.86005313 39.86025113 -70.67515747 39.73329938 -72.49023438 39.60595703 C-76.04264243 39.35759459 -79.59542117 39.11621201 -83.14868164 38.88037109 C-86.09647697 38.6844316 -89.04056729 38.47160389 -91.98608398 38.24169922 C-104.84907818 37.29057722 -117.7161508 37.39445036 -130.60742188 37.42431641 C-132.44330872 37.42714127 -132.44330872 37.42714127 -134.31628418 37.43002319 C-169.78305689 37.49405833 -204.72952728 39.27136191 -239.98242188 43.11181641 C-241.03461914 43.22638184 -242.08681641 43.34094727 -243.17089844 43.45898438 C-250.17582609 44.25576947 -257.09830183 45.35444324 -264.04492188 46.54931641 C-266.13291102 46.89619896 -268.22149457 47.23932704 -270.31019592 47.58189392 C-273.37627629 48.08482366 -276.44165586 48.5919656 -279.50708008 49.09887695 C-281.06845854 49.35659279 -282.62998145 49.61343505 -284.19165039 49.86938477 C-299.69624322 52.41194905 -315.04363724 55.46857052 -330.36767578 58.94287109 C-332.27577913 59.37509148 -334.18436093 59.80520197 -336.09326172 60.23388672 C-349.00340701 63.13648372 -361.86099299 66.10823608 -374.56347656 69.82470703 C-377.36952833 70.64410507 -380.18000597 71.44748822 -382.99023438 72.25244141 C-421.96360911 83.50848048 -460.13378571 97.11348827 -497.04492188 113.98681641 C-497.73978699 114.30371429 -498.4346521 114.62061218 -499.15057373 114.94711304 C-507.81071589 118.91553529 -516.27761849 123.16739826 -524.63916016 127.73399353 C-529.83784374 130.54931641 -529.83784374 130.54931641 -532.04492188 130.54931641 C-531.93646844 141.28657778 -531.82366183 152.02378429 -531.70558262 162.76094437 C-531.65086048 167.74881384 -531.59753304 172.73668941 -531.54760742 177.72460938 C-531.49920151 182.55521506 -531.44685224 187.38576455 -531.39198112 192.21630096 C-531.37189625 194.04187332 -531.35313636 195.86746085 -531.33584785 197.69306183 C-531.17278727 214.74020402 -530.48298573 231.72425035 -529.02929688 248.71337891 C-528.93349335 249.858293 -528.83768982 251.00320709 -528.73898315 252.18281555 C-528.42969554 255.84713545 -528.11355644 259.51079796 -527.79492188 263.17431641 C-527.68476746 264.44421417 -527.57461304 265.71411194 -527.46112061 267.02249146 C-524.19049914 304.4828027 -519.5172167 341.50702786 -513.04492188 378.54931641 C-512.91301453 379.30726501 -512.78110718 380.06521362 -512.64520264 380.84613037 C-509.33074871 399.84749686 -505.33728824 418.63586075 -500.80712891 437.38134766 C-499.96422008 440.8847381 -499.14879246 444.3938492 -498.33911133 447.9050293 C-496.60212683 455.41200691 -494.70561822 462.86952963 -492.66064453 470.29882812 C-492.21809609 471.91635847 -491.78090578 473.53535831 -491.34716797 475.15527344 C-486.94919789 491.57907552 -481.82596721 507.70920186 -476.32568359 523.79248047 C-475.09501069 527.40239177 -473.88246078 531.01791352 -472.67382812 534.63525391 C-462.71020187 564.2543974 -451.29334703 593.2440873 -438.04492188 621.54931641 C-437.47196059 622.77960162 -436.89904454 624.00990789 -436.32617188 625.24023438 C-429.05479498 640.81799488 -421.26554111 656.00468138 -412.60205078 670.86132812 C-411.06364266 673.51699971 -409.55548728 676.18755283 -408.05664062 678.86572266 C-390.26972639 710.58140344 -369.54832734 740.78016831 -346.04492188 768.54931641 C-345.59729492 769.08041016 -345.14966797 769.61150391 -344.68847656 770.15869141 C-338.52018323 777.4668228 -332.22340773 784.63013938 -325.71289062 791.63525391 C-323.71259932 793.82005231 -321.7709606 796.02621088 -319.84179688 798.27197266 C-315.48326876 803.27071317 -310.8057664 807.93461972 -306.10742188 812.61181641 C-304.82448242 813.90055664 -304.82448242 813.90055664 -303.515625 815.21533203 C-298.52016833 820.20316787 -293.40082219 824.95367679 -288.04492188 829.54931641 C-286.43723815 831.00377158 -284.83252473 832.46152536 -283.23242188 833.92431641 C-278.9688217 837.76737939 -274.59939914 841.44254375 -270.13476562 845.04931641 C-267.88531522 846.86935213 -265.65018396 848.70150523 -263.42382812 850.54931641 C-249.64619646 861.94018977 -235.22317921 872.45475554 -220.20410156 882.15283203 C-218.60459467 883.18733898 -217.00956762 884.22877966 -215.41699219 885.27392578 C-212.57483687 887.13342623 -209.71817824 888.96858881 -206.85742188 890.79931641 C-205.94758545 891.39744141 -205.03774902 891.99556641 -204.1003418 892.61181641 C-202.8141394 893.42392578 -202.8141394 893.42392578 -201.50195312 894.25244141 C-200.73858643 894.74389648 -199.97521973 895.23535156 -199.1887207 895.74169922 C-197.04980013 896.80774662 -197.04980013 896.80774662 -194.88574219 895.80615234 C-192.63972972 894.27266797 -190.89046367 892.48852404 -188.98242188 890.54931641 C-184.24646683 886.20040078 -179.22464305 883.16709043 -173.54492188 880.17431641 C-172.37110962 879.54976562 -172.37110962 879.54976562 -171.17358398 878.91259766 C-153.56885737 869.91889853 -131.24441691 868.47680487 -112.40039062 874.35400391 C-111.29308594 874.74845703 -110.18578125 875.14291016 -109.04492188 875.54931641 C-107.98917969 875.92314453 -106.9334375 876.29697266 -105.84570312 876.68212891 C-84.77666129 884.82918478 -69.17625231 900.72568444 -59.54882812 920.96337891 C-55.82489496 929.84278319 -53.38486356 938.91270877 -53.04492188 948.54931641 C-53.00496094 949.55478516 -52.965 950.56025391 -52.92382812 951.59619141 C-52.45876502 974.46635371 -60.20870145 993.36308397 -75.04492188 1010.54931641 C-75.63789062 1011.23896484 -76.23085938 1011.92861328 -76.84179688 1012.63916016 C-85.48158098 1021.96200412 -97.11512416 1028.45221416 -109.04492188 1032.54931641 C-110.14835937 1032.94119141 -111.25179688 1033.33306641 -112.38867188 1033.73681641 C-133.62661806 1040.38521695 -156.12025891 1036.90206374 -175.75976562 1027.20947266 C-192.87655889 1017.63849425 -205.74603491 1002.67504145 -213.04492188 984.54931641 C-213.43019043 983.59822998 -213.43019043 983.59822998 -213.82324219 982.62792969 C-216.80189454 974.87158015 -218.32515496 968.01264168 -217.57617188 959.66650391 C-215.92996869 947.36424427 -215.92996869 947.36424427 -219.82763672 936.16992188 C-224.91997985 931.78624621 -230.87875368 928.99209358 -236.9140625 926.12988281 C-242.06718639 923.52840714 -246.70432257 920.23662184 -251.41992188 916.92431641 C-252.33676758 916.29436768 -253.25361328 915.66441895 -254.19824219 915.01538086 C-267.39901356 905.93422588 -279.93692428 896.13023006 -292.31152344 885.96240234 C-294.61473652 884.08479709 -296.95501251 882.25587486 -299.29492188 880.42431641 C-304.14874097 876.55923824 -308.67746421 872.37471691 -313.22070312 868.15478516 C-315.56611817 865.99103435 -317.93932903 863.88065357 -320.35742188 861.79931641 C-323.48638848 859.08969584 -326.39462415 856.22277449 -329.29101562 853.26806641 C-330.99819548 851.59510619 -332.7708502 850.07784315 -334.60742188 848.54931641 C-339.38441597 844.44147323 -343.56696153 839.79670673 -347.82910156 835.16943359 C-351.09574219 831.62545325 -354.39983918 828.15984415 -357.85742188 824.79931641 C-361.81600879 820.89915881 -365.26661201 816.69355196 -368.73632812 812.35791016 C-371.04115413 809.55390018 -373.44908214 806.8950184 -375.91992188 804.23681641 C-381.12231824 798.57020621 -385.83121803 792.60459103 -390.52050781 786.51513672 C-392.13070974 784.43868798 -393.76152632 782.3797571 -395.39648438 780.32275391 C-403.20674304 770.46009282 -410.49660851 760.3451142 -417.48339844 749.88427734 C-419.00256851 747.6126478 -420.5338696 745.34967972 -422.06835938 743.08837891 C-467.60184028 675.75013249 -500.95154646 601.43195327 -539.04492188 477.54931641 C-539.36380371 476.39141602 -539.68268555 475.23351563 -540.01123047 474.04052734 C-551.07295479 433.6072598 -559.18789768 392.12285199 -564.765625 350.58154297 C-565.15446949 347.75222341 -565.59766409 344.932426 -566.04492188 342.11181641 C-570.11097437 315.80008826 -572.71533885 289.37781631 -574.90213013 262.85266113 C-575.07640986 260.74350895 -575.25279279 258.63452916 -575.43161011 256.52575684 C-577.86009567 227.72253237 -578.21398834 198.94443814 -578.17529297 170.05957031 C-578.17070222 166.61814654 -578.17076265 163.17677543 -578.17529297 159.73535156 C-578.21819476 127.1182217 -578.21819476 127.1182217 -577.72460938 114.46337891 C-577.70262482 113.69818939 -577.68064026 112.93299988 -577.6579895 112.1446228 C-577.43929055 107.84038757 -576.67347181 104.987529 -574.04492188 101.54931641 C-571.96817758 100.02109074 -570.02189627 98.74864941 -567.79492188 97.48681641 C-567.14362305 97.1081543 -566.49232422 96.72949219 -565.82128906 96.33935547 C-517.60915331 68.69121682 -465.19122566 47.59257108 -412.04492188 31.54931641 C-410.94760742 31.21758423 -410.94760742 31.21758423 -409.828125 30.87915039 C-404.91005735 29.4028419 -399.97753718 27.97605086 -395.04492188 26.54931641 C-394.12662598 26.2821582 -393.20833008 26.015 -392.26220703 25.73974609 C-377.30750054 21.40468955 -362.29204866 17.62116967 -347.09521484 14.23583984 C-344.2730154 13.60065297 -341.45714591 12.94395443 -338.64257812 12.27587891 C-315.69021768 6.85817889 -292.43940645 2.52872207 -269.04492188 -0.45068359 C-267.56978661 -0.64179976 -266.09469222 -0.83323162 -264.61962891 -1.02490234 C-224.86299637 -6.18085072 -224.86299637 -6.18085072 -209.99658203 -7.24023438 C-207.87324208 -7.39162553 -205.75057821 -7.55261061 -203.62841797 -7.71972656 C-137.42940364 -12.81857258 -65.47094756 -12.66741958 0 0 Z " fill="#FDFEFE" transform="translate(842.044921875,582.45068359375)"/>
<path d="M0 0 C0.70890381 0.00902344 1.41780762 0.01804687 2.14819336 0.02734375 C10.11941586 0.29155276 14.40234491 2.37608167 19.8125 8.0625 C24.39667426 13.72833336 27.09085157 20.09142833 30.01171875 26.71484375 C40.92898449 51.40775968 53.33813966 75.18470135 70.125 96.4375 C70.76695312 97.27152344 71.40890625 98.10554688 72.0703125 98.96484375 C77.39578957 105.78878501 83.17300023 112.16247713 89.125 118.4375 C89.59953613 118.94071777 90.07407227 119.44393555 90.56298828 119.96240234 C111.4349515 141.95187494 137.34440071 158.04761129 166.125 167.4375 C166.96901367 167.71287598 167.81302734 167.98825195 168.68261719 168.27197266 C181.94162715 172.3561984 195.11257464 172.90341756 208.875 172.9375 C210.0942215 172.94450928 210.0942215 172.94450928 211.33807373 172.95166016 C249.07784188 173.03551572 284.11159706 159.53131454 313.125 135.4375 C314.00913574 134.70563477 314.00913574 134.70563477 314.91113281 133.95898438 C347.14152212 107.13157413 371.46119137 71.36942719 388.39453125 33.140625 C388.68126205 32.49415512 388.96799286 31.84768524 389.26341248 31.18162537 C390.700574 27.93262964 392.12205661 24.67788492 393.52124023 21.41235352 C397.27991927 12.79079319 400.63141404 5.83193047 409.265625 1.35546875 C416.30656523 -0.90494239 425.83523788 -1.04698135 432.6875 1.9375 C439.06250098 5.92892761 444.05167088 12.24182836 446.125 19.4375 C448.39619097 30.36271172 442.48933101 40.74486339 438.125 50.4375 C437.71282227 51.3567627 437.30064453 52.27602539 436.87597656 53.22314453 C424.86601966 79.7232755 410.43824113 105.74908181 392.125 128.4375 C391.47273438 129.27023437 390.82046875 130.10296875 390.1484375 130.9609375 C378.92454643 145.23329281 367.0424322 158.7202501 353.125 170.4375 C352.279375 171.17226562 351.43375 171.90703125 350.5625 172.6640625 C315.25911168 202.88299543 269.99921438 224.19839572 223.00390625 224.7109375 C221.95437271 224.72351089 220.90483917 224.73608429 219.82350159 224.7490387 C176.43155349 225.16868616 176.43155349 225.16868616 157.125 219.4375 C156.21878906 219.18049316 155.31257812 218.92348633 154.37890625 218.65869141 C117.05332933 207.87795297 85.02819508 187.08714056 57.125 160.4375 C56.20315918 159.55868164 56.20315918 159.55868164 55.26269531 158.66210938 C46.96026228 150.69482822 39.41128628 142.50975466 32.52587891 133.29150391 C31.03758829 131.3218143 29.51327454 129.38443845 27.98046875 127.44921875 C9.16003308 103.55796303 -4.66237713 76.79831528 -17.50830078 49.33447266 C-18.65268572 46.90873637 -19.82819529 44.5043509 -21.02734375 42.10546875 C-25.08904094 33.59024005 -26.78376012 25.3246637 -24.20703125 16.02734375 C-19.75508125 5.93755315 -10.99291633 -0.16642144 0 0 Z " fill="#01473F" transform="translate(495.875,1041.5625)"/>
<path d="M0 0 C0.84304688 0.020625 1.68609375 0.04125 2.5546875 0.0625 C11.26161122 0.5727959 21.28202541 4.05188407 27.56640625 10.2265625 C33.00377434 16.95289795 34.78709175 23.25963935 34.421875 31.8828125 C33.79900922 36.48509854 32.40022857 40.05046002 30 44 C29.071875 45.5778125 29.071875 45.5778125 28.125 47.1875 C23.24958767 52.60798949 13.68742128 55.91143922 6.5625 56.875 C5.04302258 56.95154084 3.52135639 56.98796395 2 57 C0.8346875 57.03738281 -0.330625 57.07476563 -1.53125 57.11328125 C-15.99396871 57.38807291 -31.02239223 55.31730054 -42 45 C-42.66 44.01 -43.32 43.02 -44 42 C-63.33837583 40.21820862 -85.13368556 52.82242108 -99.8125 64.375 C-115.47750692 77.81539055 -125.50077977 93.99877434 -133 113 C-133.47179687 114.18722656 -133.94359375 115.37445312 -134.4296875 116.59765625 C-138.69837617 128.35643528 -140.78807445 140.71943315 -143 153 C-143.18248291 153.90790283 -143.36496582 154.81580566 -143.55297852 155.7512207 C-144.13995664 160.01715078 -144.16245897 164.20654202 -144.16796875 168.5078125 C-144.17129715 169.42851532 -144.17462555 170.34921814 -144.17805481 171.29782104 C-144.18310806 173.24948633 -144.18546363 175.20116021 -144.18530273 177.15283203 C-144.18745704 180.06688776 -144.20553943 182.98054404 -144.22460938 185.89453125 C-144.27467282 202.27868574 -143.10559252 218.42403415 -140.1875 234.5625 C-140.01935791 235.51229736 -139.85121582 236.46209473 -139.67797852 237.44067383 C-138.09395905 246.06749862 -135.93110884 254.495832 -133.56835938 262.9375 C-132.28352427 267.59999441 -131.15302903 272.30351591 -130 277 C-131.30324219 277.25523437 -131.30324219 277.25523437 -132.6328125 277.515625 C-138.97679352 278.84970602 -143.89742615 279.97165223 -149 284 C-149.99 284.33 -150.98 284.66 -152 285 C-158.48043851 267.62324896 -162.23420462 249.3764432 -165.3125 231.125 C-165.47177979 230.18213135 -165.63105957 229.2392627 -165.79516602 228.26782227 C-167.9333052 214.95010135 -168.21465761 201.73842728 -168.24023438 188.27758789 C-168.24985842 185.23229788 -168.28092635 182.18770829 -168.3125 179.14257812 C-168.41309656 160.76777576 -166.89616934 142.54269962 -161.8125 124.8125 C-161.51206787 123.73572998 -161.21163574 122.65895996 -160.90209961 121.54956055 C-153.56393582 96.03495194 -142.31271338 74.39961903 -124 55 C-123.36578125 54.31292969 -122.7315625 53.62585938 -122.078125 52.91796875 C-104.46095037 34.46361434 -81.23078466 24.50227605 -56.75 19.078125 C-47.97738106 17.40104681 -47.97738106 17.40104681 -41.4765625 11.6484375 C-31.22550564 0.20413592 -14.24050513 -0.73816873 0 0 Z " fill="#FCFDFD" transform="translate(629,764)"/>
<path d="M0 0 C3.12634494 2.64624809 6.15204248 5.30408497 8 9 C10.18840655 9.54560273 12.40373937 9.98409492 14.625 10.375 C41.83877013 15.51476473 64.58516406 26.27525051 85 45 C85.67417969 45.59167969 86.34835937 46.18335938 87.04296875 46.79296875 C109.43081485 67.47912584 121.22117317 99.98365289 127.1875 129.0625 C127.34250977 129.816521 127.49751953 130.57054199 127.65722656 131.34741211 C130.46037681 145.81050702 131.4427437 160.05073655 131.4375 174.75 C131.43860275 176.10961853 131.43860275 176.10961853 131.43972778 177.4967041 C131.38889217 201.63967075 131.08218268 258.91781732 113 277 C112.113125 276.236875 111.22625 275.47375 110.3125 274.6875 C105.17549898 270.95149926 99.13329404 270.13442882 93 269 C93.55094268 263.58638933 94.57490989 258.68226998 96.25 253.5 C112.39617987 200.71987936 113.6803399 138.0104365 88.02734375 88.09765625 C83.86790729 80.32716675 78.76678479 73.63724287 73 67 C72.52304687 66.37867188 72.04609375 65.75734375 71.5546875 65.1171875 C57.63105647 47.19155474 32.24665811 37.37901076 10.625 33.375 C5.79865533 34.20712839 3.91101881 36.57378926 0.44921875 39.89453125 C-10.75811647 49.52890714 -26.01269009 49.76925053 -40 49 C-50.17176649 48.01364689 -60.10844112 44.92707809 -67 37 C-72.08315611 29.84147246 -71.89846975 21.45123107 -71 13 C-69.31176858 6.25762576 -64.55696006 1.89284368 -59 -2 C-42.18765738 -12.04983609 -16.17202144 -10.62085471 0 0 Z " fill="#FCFDFD" transform="translate(821,772)"/>
<path d="M0 0 C8.87203071 6.29243186 15.22040277 15.80195284 17.44921875 26.4609375 C19.08075877 39.66309298 16.76364693 51.05984603 8.69921875 61.8984375 C4.79244666 66.40400456 0.72298675 69.68982788 -4.55078125 72.4609375 C-5.32550781 72.8734375 -6.10023438 73.2859375 -6.8984375 73.7109375 C-16.59120984 78.02549458 -30.1446208 78.52472555 -40.17578125 74.8984375 C-52.10736566 68.99500549 -59.71446289 59.89993663 -64.63671875 47.7890625 C-67.52461838 37.2741459 -66.82218594 24.03786837 -61.55078125 14.4609375 C-55.73267962 4.80426586 -46.60652533 -2.95801848 -35.64916992 -6.08105469 C-23.21220376 -8.79562694 -10.78104201 -6.50494724 0 0 Z " fill="#019C8C" transform="translate(730.55078125,1501.5390625)"/>
</svg>
