<?xml version="1.0" encoding="UTF-8"?>
<svg version="1.1" xmlns="http://www.w3.org/2000/svg" width="600" height="600">
<path d="M0 0 C198 0 396 0 600 0 C600 198 600 396 600 600 C402 600 204 600 0 600 C0 402 0 204 0 0 Z " fill="#EA2735" transform="translate(0,0)"/>
<path d="M0 0 C198 0 396 0 600 0 C600 198 600 396 600 600 C402 600 204 600 0 600 C0 402 0 204 0 0 Z M255 33 C254.17338867 33.13390137 253.34677734 33.26780273 252.49511719 33.40576172 C207.96617995 40.66304604 165.96096113 60.81520615 131 89 C129.94402553 89.82944633 128.88803694 90.65887468 127.83203125 91.48828125 C120.37221511 97.53912824 113.5586851 104.23503037 106.75 111 C105.82678955 111.91386475 104.9035791 112.82772949 103.95239258 113.76928711 C97.87886968 119.87117821 92.3119721 126.22644195 87 133 C86.23042969 133.98057373 86.23042969 133.98057373 85.4453125 134.98095703 C75.07275502 148.42532931 66.51614416 162.86192426 58.625 177.875 C58.13717041 178.80119141 57.64934082 179.72738281 57.14672852 180.68164062 C44.13731559 205.85508946 36.53047739 233.1523834 32 261 C31.85594727 261.85996582 31.71189453 262.71993164 31.56347656 263.60595703 C21.85244985 324.38358974 37.866878 391.73670243 71 443 C71.42603516 443.66112793 71.85207031 444.32225586 72.29101562 445.00341797 C79.16987447 455.56374016 86.86147914 465.38651008 95 475 C95.7115625 475.84433594 96.423125 476.68867188 97.15625 477.55859375 C109.159475 491.30038111 122.2182516 504.27998129 137 515 C138.14884745 515.85491814 139.29727984 516.71039429 140.4453125 517.56640625 C161.32303342 532.97141183 184.66703806 545.09582465 209 554 C209.71333496 554.27005859 210.42666992 554.54011719 211.16162109 554.81835938 C251.71271795 570.0921973 301.36326527 574.36500718 344 566 C345.04687988 565.80132324 346.09375977 565.60264648 347.17236328 565.39794922 C392.0527377 556.69818156 434.46903643 537.91104221 470 509 C470.5347998 508.56816406 471.06959961 508.13632812 471.62060547 507.69140625 C486.02902261 495.97103156 499.78161967 482.83388044 511 468 C511.92516442 466.81462248 512.85099391 465.62976386 513.77734375 464.4453125 C538.28076167 432.79157299 554.70595655 396.9074172 564 358 C564.26296875 356.94039063 564.5259375 355.88078125 564.796875 354.7890625 C565.63040051 351.20830497 566.34099801 347.61586262 567 344 C567.13825195 343.27603027 567.27650391 342.55206055 567.41894531 341.80615234 C569.95391162 327.99544989 570.2943026 314.24791486 570.3125 300.25 C570.31599457 299.38998383 570.31948914 298.52996765 570.3230896 297.64389038 C570.36216751 280.29185002 568.83289147 263.39684766 565.375 246.375 C565.11920166 245.10736816 564.86340332 243.83973633 564.59985352 242.53369141 C552.23680345 183.78259862 518.10064091 126.52208223 470 90 C468.72914738 88.99124579 467.45973385 87.98067714 466.19140625 86.96875 C430.93682783 59.08910619 388.16031006 40.888415 344 33 C343.07541992 32.83483887 342.15083984 32.66967773 341.19824219 32.49951172 C313.2472031 27.78575957 282.88740702 28.08089692 255 33 Z " fill="#FEFEFE" transform="translate(0,0)"/>
<path d="M0 0 C1.24716797 0.00322266 2.49433594 0.00644531 3.77929688 0.00976562 C5.07287109 0.01814453 6.36644531 0.02652344 7.69921875 0.03515625 C9.66858398 0.04192383 9.66858398 0.04192383 11.67773438 0.04882812 C14.91408203 0.06059666 18.1504062 0.07853162 21.38671875 0.09765625 C21.38671875 7.02765625 21.38671875 13.95765625 21.38671875 21.09765625 C18.41671875 21.42765625 15.44671875 21.75765625 12.38671875 22.09765625 C11.06671875 23.08765625 9.74671875 24.07765625 8.38671875 25.09765625 C8.05671875 28.39765625 7.72671875 31.69765625 7.38671875 35.09765625 C15.30671875 35.09765625 23.22671875 35.09765625 31.38671875 35.09765625 C31.38671875 26.18765625 31.38671875 17.27765625 31.38671875 8.09765625 C42.93671875 8.09765625 54.48671875 8.09765625 66.38671875 8.09765625 C66.38671875 17.00765625 66.38671875 25.91765625 66.38671875 35.09765625 C71.99671875 35.09765625 77.60671875 35.09765625 83.38671875 35.09765625 C83.38671875 42.35765625 83.38671875 49.61765625 83.38671875 57.09765625 C77.77671875 57.09765625 72.16671875 57.09765625 66.38671875 57.09765625 C66.46066484 62.59771555 66.54344148 68.09613159 66.64916992 73.59545898 C66.68243877 75.46646639 66.7104646 77.33757463 66.7331543 79.20874023 C66.76666463 81.89741008 66.8189774 84.58515423 66.875 87.2734375 C66.88138992 88.11103104 66.88777985 88.94862457 66.8943634 89.81159973 C66.87984277 94.0952701 66.87984277 94.0952701 68.71769714 97.81071472 C71.32461119 99.82084205 73.84178153 99.62513461 77.07421875 99.78515625 C79.15734375 99.88828125 81.24046875 99.99140625 83.38671875 100.09765625 C83.38671875 108.67765625 83.38671875 117.25765625 83.38671875 126.09765625 C78.86952276 126.16703298 74.35422102 126.22660712 69.83691406 126.26245117 C68.30462332 126.27741369 66.77237446 126.29779122 65.24023438 126.32397461 C44.83260383 126.66365775 44.83260383 126.66365775 36.94921875 120.84765625 C29.85179801 113.23091205 30.23955646 103.7855152 30.2890625 94.01171875 C30.29047745 92.95479828 30.2918924 91.89787781 30.29335022 90.80892944 C30.29892935 87.44680909 30.31147806 84.08475634 30.32421875 80.72265625 C30.32923644 78.43750096 30.33379888 76.15234463 30.33789062 73.8671875 C30.3480393 68.27729702 30.36761888 62.68755194 30.38671875 57.09765625 C22.46671875 57.09765625 14.54671875 57.09765625 6.38671875 57.09765625 C6.38671875 79.53765625 6.38671875 101.97765625 6.38671875 125.09765625 C-5.49328125 125.09765625 -17.37328125 125.09765625 -29.61328125 125.09765625 C-29.61328125 102.65765625 -29.61328125 80.21765625 -29.61328125 57.09765625 C-32.91328125 57.09765625 -36.21328125 57.09765625 -39.61328125 57.09765625 C-39.61328125 49.83765625 -39.61328125 42.57765625 -39.61328125 35.09765625 C-35.65328125 35.09765625 -31.69328125 35.09765625 -27.61328125 35.09765625 C-27.67515625 33.34453125 -27.73703125 31.59140625 -27.80078125 29.78515625 C-27.75591338 20.26195085 -26.22410168 12.66608508 -19.4453125 5.6875 C-13.6128099 0.62603186 -7.44612746 -0.03400058 0 0 Z " fill="#FEFBFB" transform="translate(432.61328125,222.90234375)"/>
<path d="M0 0 C1.17812256 0.00499512 2.35624512 0.00999023 3.57006836 0.01513672 C12.81872358 0.19994413 20.28859048 1.41795968 28.625 5.5 C29.56085938 5.95761719 30.49671875 6.41523438 31.4609375 6.88671875 C41.84898912 12.57987016 48.16705006 20.12615017 51.875 31.25 C52.625 34.5 52.625 34.5 52.625 38.5 C47.28658219 38.64841624 41.94936658 38.7572453 36.609375 38.82958984 C34.79340701 38.85974788 32.97758451 38.90068198 31.16210938 38.95263672 C28.55041645 39.02550124 25.94064942 39.05946367 23.328125 39.0859375 C22.51756653 39.11690521 21.70700806 39.14787292 20.87188721 39.17977905 C18.63361556 39.18111287 16.77588474 39.12328489 14.625 38.5 C12.19042969 35.57910156 12.19042969 35.57910156 10.625 32.5 C8.00664611 29.72968807 6.7500044 29.51328172 2.875 29.1015625 C1.45833398 29.0936334 0.04149995 29.10190489 -1.375 29.125 C-2.0865625 29.11339844 -2.798125 29.10179687 -3.53125 29.08984375 C-7.75702025 29.11349545 -10.31861525 29.49137126 -13.375 32.5 C-13.67642916 35.83957308 -13.67642916 35.83957308 -12.375 39.5 C-5.88308041 44.23595021 2.04064525 45.77311789 9.75 47.375 C25.96061629 51.01477595 42.73623011 56.11353414 52.625 70.5 C57.17643718 78.10862895 56.5901808 87.59775404 54.93359375 96.01171875 C51.93662929 106.80831457 46.30968964 114.53877825 36.89453125 120.6171875 C20.4440105 129.6667277 -2.39016164 131.32435525 -20.5 126.9375 C-33.52370419 122.84515635 -44.4267432 115.42562827 -51.34375 103.5078125 C-54.27531682 97.80014074 -55.375 94.06592491 -55.375 87.5 C-42.505 87.5 -29.635 87.5 -16.375 87.5 C-15.055 90.14 -13.735 92.78 -12.375 95.5 C-5.45637688 100.44187366 1.67054679 100.42466765 9.9140625 99.14453125 C12.00736967 98.69499815 12.00736967 98.69499815 14.625 97.5 C15.7827506 94.02674819 15.69366652 91.13932552 15.625 87.5 C8.7030371 83.00393796 2.03483149 81.1701691 -6 79.5625 C-22.2050915 76.05092318 -38.26501487 72.06964486 -48.15625 57.5625 C-53.34430672 48.78271171 -53.73021392 38.46759835 -52.375 28.5 C-49.55422806 18.78756933 -43.45209001 12.03340698 -34.80859375 7.0078125 C-23.79321205 1.58830884 -12.1631889 -0.06827843 0 0 Z " fill="#FEFCFC" transform="translate(134.375,222.5)"/>
<path d="M0 0 C11.22 0 22.44 0 34 0 C36.625 10.9375 36.625 10.9375 37.50097656 14.59838867 C38.89449858 20.42030299 40.30139626 26.23844403 41.734375 32.05078125 C42.14695557 33.73602905 42.14695557 33.73602905 42.56787109 35.45532227 C43.09746166 37.6170962 43.63149426 39.77778778 44.17041016 41.93725586 C44.53078369 43.41464233 44.53078369 43.41464233 44.8984375 44.921875 C45.21820557 46.21496582 45.21820557 46.21496582 45.54443359 47.53417969 C46.01437687 50.07781692 46.08140287 52.41935585 46 55 C46.66 55 47.32 55 48 55 C48.10449463 54.37270996 48.20898926 53.74541992 48.31665039 53.09912109 C49.68927488 45.18668121 51.51719814 37.4203655 53.4375 29.625 C54.04101765 27.1590139 54.64388651 24.69286893 55.24609375 22.2265625 C55.5385498 21.03192383 55.83100586 19.83728516 56.13232422 18.60644531 C57.25909736 13.92307647 58.32193195 9.22615451 59.37133789 4.52490234 C60 2 60 2 61 0 C71.23 0 81.46 0 92 0 C95.59545212 13.18332443 98.73614992 26.42068551 101.67602539 39.76196289 C101.89619072 40.75498413 101.89619072 40.75498413 102.12080383 41.76806641 C102.52392092 43.58778859 102.92368311 45.40825303 103.32324219 47.22875977 C103.87578653 49.93678663 103.87578653 49.93678663 105 52 C105.22139648 51.10917725 105.44279297 50.21835449 105.67089844 49.30053711 C106.51234125 45.91747293 107.35493284 42.5346988 108.19824219 39.15209961 C108.55936232 37.70266565 108.92005624 36.25312542 109.28027344 34.8034668 C111.19238347 27.10962742 113.12561319 19.42152451 115.140625 11.75390625 C115.45032227 10.57256104 115.76001953 9.39121582 116.07910156 8.17407227 C117 5 117 5 119 0 C129.89 0 140.78 0 152 0 C150.2834815 6.29390117 148.58919202 12.48513527 146.625 18.6875 C146.41222412 19.36337158 146.19944824 20.03924316 145.98022461 20.7355957 C145.11851198 23.4722226 144.25218583 26.207359 143.38232422 28.94140625 C140.82337022 36.98796377 138.40453489 45.05700901 136.125 53.1875 C133.30648262 63.22557276 130.05650414 73.0952616 126.66088867 82.95141602 C126.01895127 84.94125595 125.5070994 86.97160241 125 89 C113.12 89 101.24 89 89 89 C85.625 78.875 85.625 78.875 84.74145508 75.30639648 C84.44148369 74.10617104 84.44148369 74.10617104 84.13545227 72.88169861 C83.93219833 72.05319901 83.7289444 71.2246994 83.51953125 70.37109375 C83.30181564 69.49598648 83.08410004 68.62087921 82.85978699 67.71925354 C82.17400055 64.95948895 81.49316671 62.19853125 80.8125 59.4375 C80.3447298 57.55135073 79.87663382 55.66528222 79.40820312 53.77929688 C78.26837099 49.18712201 77.13297482 44.59387127 76 40 C74.47861633 42.8251896 73.51586347 45.46921633 72.76318359 48.58496094 C72.54310638 49.48559265 72.32302917 50.38622437 72.09628296 51.31414795 C71.86599396 52.27782288 71.63570496 53.2414978 71.3984375 54.234375 C71.0364476 55.72411835 71.0364476 55.72411835 70.66714478 57.24395752 C69.89855709 60.41155912 69.13669923 63.58073568 68.375 66.75 C67.85460956 68.89984684 67.33378142 71.04958778 66.8125 73.19921875 C65.53576094 78.46475085 64.26813568 83.73235947 63 89 C51.45 89 39.9 89 28 89 C26.515 84.545 26.515 84.545 25 80 C24.3100557 78.00854873 23.61531084 76.01874895 22.9140625 74.03125 C19.29671452 63.71988287 15.71330524 53.43803748 12.74267578 42.91992188 C11.34963893 38.03889353 9.72651778 33.27254567 8 28.5 C5.86553259 22.58943191 3.90864561 16.65124774 2.125 10.625 C1.90972656 9.90505859 1.69445312 9.18511719 1.47265625 8.44335938 C0.6249294 5.52684218 0 3.05409943 0 0 Z " fill="#FEFDFD" transform="translate(192,259)"/>
<path d="M0 0 C11.55 0 23.1 0 35 0 C35 29.37 35 58.74 35 89 C23.45 89 11.9 89 0 89 C0 59.63 0 30.26 0 0 Z " fill="#FEFEFE" transform="translate(350,259)"/>
<path d="M0 0 C11.88 0 23.76 0 36 0 C36 8.25 36 16.5 36 25 C24.12 25 12.24 25 0 25 C0 16.75 0 8.5 0 0 Z " fill="#FEFAFA" transform="translate(349,223)"/>
</svg>
